<?xml version="1.0" encoding="UTF-8"?>
<!DOCTYPE svg PUBLIC "-//W3C//DTD SVG 1.1//EN" "http://www.w3.org/Graphics/SVG/1.1/DTD/svg11.dtd">
<svg xmlns="http://www.w3.org/2000/svg" version="1.1" width="1635px" height="1187px" style="shape-rendering:geometricPrecision; text-rendering:geometricPrecision; image-rendering:optimizeQuality; fill-rule:evenodd; clip-rule:evenodd" xmlns:xlink="http://www.w3.org/1999/xlink">
<g><path style="opacity:0.904" fill="#010101" d="M 118.5,-0.5 C 584.167,-0.5 1049.83,-0.5 1515.5,-0.5C 1579.69,14.0272 1619.36,53.3606 1634.5,117.5C 1634.5,434.5 1634.5,751.5 1634.5,1068.5C 1620.21,1127.54 1583.88,1165.7 1525.5,1183C 1519.69,1184.13 1514.02,1185.3 1508.5,1186.5C 1047.5,1186.5 586.5,1186.5 125.5,1186.5C 65.1488,1176.17 24.4822,1143.33 3.5,1088C 3.93534,1085.6 3.26867,1083.27 1.5,1081C 1.83333,1080.67 2.16667,1080.33 2.5,1080C 1.97951,1077.2 0.979512,1074.36 -0.5,1071.5C -0.5,752.167 -0.5,432.833 -0.5,113.5C 14.8116,52.2534 54.4783,14.2534 118.5,-0.5 Z"/></g>
<g><path style="opacity:1" fill="#3f4345" d="M 131.5,3.5 C 588.167,3.33333 1044.83,3.5 1501.5,4C 1566.34,12.5112 1608.17,48.0112 1627,110.5C 1628.42,116.089 1629.42,121.756 1630,127.5C 1630.43,334.055 1630.59,540.555 1630.5,747C 1630.55,782.478 1629.89,817.812 1628.5,853C 1630.46,920.356 1630.96,987.856 1630,1055.5C 1621.88,1113.25 1590.72,1152.75 1536.5,1174C 1526.34,1177.1 1516.01,1179.43 1505.5,1181C 1045.5,1181.67 585.5,1181.67 125.5,1181C 65.4754,1171.08 25.9754,1137.25 7,1079.5C 4.68766,1070.27 3.02099,1060.94 2,1051.5C 1.33333,745.5 1.33333,439.5 2,133.5C 8.45999,78.3782 36.6267,38.8782 86.5,15C 101.088,9.02429 116.088,5.19095 131.5,3.5 Z"/></g>
<g><path style="opacity:1" fill="#000000" d="M 203.5,26.5 C 570.5,26.3333 937.5,26.5 1304.5,27C 1305,27.5 1305.5,28 1306,28.5C 1306.67,61.5 1306.67,94.5 1306,127.5C 1302.96,134.944 1297.46,139.444 1289.5,141C 931.166,141.833 572.833,141.667 214.5,140.5C 208.45,137.951 204.283,133.617 202,127.5C 201.333,94.5 201.333,61.5 202,28.5C 202.717,27.9558 203.217,27.2891 203.5,26.5 Z"/></g>
<g><path style="opacity:1" fill="#3e4244" d="M 1293.5,101.5 C 1294.5,79.0061 1294.83,56.3395 1294.5,33.5C 1296.83,33.5 1299.17,33.5 1301.5,33.5C 1301.5,64.1667 1301.5,94.8333 1301.5,125.5C 1299.01,132.477 1294.01,136.31 1286.5,137C 929.833,137.667 573.167,137.667 216.5,137C 211.667,134.833 208.167,131.333 206,126.5C 205.5,94.5017 205.333,62.5017 205.5,30.5C 208.167,30.5 210.833,30.5 213.5,30.5C 213.333,54.5023 213.5,78.5023 214,102.5C 218.066,103.464 222.233,103.797 226.5,103.5C 226.215,108.897 226.549,114.23 227.5,119.5C 232.456,120.494 237.456,120.827 242.5,120.5C 242.203,124.767 242.536,128.934 243.5,133C 255.833,133.667 268.167,133.667 280.5,133C 281.464,128.934 281.797,124.767 281.5,120.5C 286.179,120.666 290.845,120.499 295.5,120C 296,119.5 296.5,119 297,118.5C 297.499,113.511 297.666,108.511 297.5,103.5C 308.833,103.5 320.167,103.5 331.5,103.5C 331.334,108.844 331.501,114.177 332,119.5C 336.737,120.469 341.57,120.803 346.5,120.5C 346.203,124.767 346.536,128.934 347.5,133C 359.833,133.667 372.167,133.667 384.5,133C 385.464,128.934 385.797,124.767 385.5,120.5C 390.565,120.781 395.565,120.448 400.5,119.5C 401.495,114.208 401.828,108.875 401.5,103.5C 412.833,103.5 424.167,103.5 435.5,103.5C 435.334,108.844 435.501,114.177 436,119.5C 440.737,120.469 445.57,120.803 450.5,120.5C 450.203,124.767 450.536,128.934 451.5,133C 464.167,133.667 476.833,133.667 489.5,133C 490.464,128.934 490.797,124.767 490.5,120.5C 495.43,120.803 500.263,120.469 505,119.5C 505.499,114.177 505.666,108.844 505.5,103.5C 516.833,103.5 528.167,103.5 539.5,103.5C 539.334,108.844 539.501,114.177 540,119.5C 545.072,120.471 550.238,120.805 555.5,120.5C 555.5,124.833 555.5,129.167 555.5,133.5C 568.171,133.667 580.838,133.5 593.5,133C 594.464,128.934 594.797,124.767 594.5,120.5C 599.43,120.803 604.263,120.469 609,119.5C 609.499,114.177 609.666,108.844 609.5,103.5C 620.833,103.5 632.167,103.5 643.5,103.5C 643.215,108.897 643.549,114.23 644.5,119.5C 649.132,120.328 653.798,120.828 658.5,121C 659.464,125.066 659.797,129.233 659.5,133.5C 672.171,133.667 684.838,133.5 697.5,133C 698.464,128.934 698.797,124.767 698.5,120.5C 703.43,120.803 708.263,120.469 713,119.5C 713.977,114.207 714.477,108.874 714.5,103.5C 718.997,104.055 723.164,103.389 727,101.5C 727.5,77.8357 727.667,54.169 727.5,30.5C 744.5,30.5 761.5,30.5 778.5,30.5C 778.167,54.1761 778.5,77.8427 779.5,101.5C 780.308,101.808 780.975,102.308 781.5,103C 785.486,103.499 789.486,103.666 793.5,103.5C 793.215,108.897 793.549,114.23 794.5,119.5C 799.456,120.494 804.456,120.827 809.5,120.5C 809.203,124.767 809.536,128.934 810.5,133C 822.833,133.667 835.167,133.667 847.5,133C 848.464,128.934 848.797,124.767 848.5,120.5C 853.43,120.803 858.263,120.469 863,119.5C 863.499,114.177 863.666,108.844 863.5,103.5C 874.833,103.5 886.167,103.5 897.5,103.5C 897.334,108.511 897.501,113.511 898,118.5C 898.5,119 899,119.5 899.5,120C 904.155,120.499 908.821,120.666 913.5,120.5C 913.5,124.833 913.5,129.167 913.5,133.5C 926.171,133.667 938.838,133.5 951.5,133C 952.464,128.934 952.797,124.767 952.5,120.5C 957.43,120.803 962.263,120.469 967,119.5C 967.567,114.166 968.067,108.833 968.5,103.5C 979.833,103.5 991.167,103.5 1002.5,103.5C 1002.33,108.844 1002.5,114.177 1003,119.5C 1007.74,120.469 1012.57,120.803 1017.5,120.5C 1017.2,124.767 1017.54,128.934 1018.5,133C 1030.83,133.667 1043.17,133.667 1055.5,133C 1056.17,129 1056.83,125 1057.5,121C 1061.83,120.667 1066.17,120.333 1070.5,120C 1071,119.5 1071.5,119 1072,118.5C 1072.5,113.511 1072.67,108.511 1072.5,103.5C 1083.83,103.5 1095.17,103.5 1106.5,103.5C 1106.33,108.844 1106.5,114.177 1107,119.5C 1111.74,120.469 1116.57,120.803 1121.5,120.5C 1121.2,124.767 1121.54,128.934 1122.5,133C 1134.83,133.667 1147.17,133.667 1159.5,133C 1160.46,128.934 1160.8,124.767 1160.5,120.5C 1165.76,120.805 1170.93,120.471 1176,119.5C 1176.5,114.177 1176.67,108.844 1176.5,103.5C 1187.83,103.5 1199.17,103.5 1210.5,103.5C 1210.33,108.844 1210.5,114.177 1211,119.5C 1215.74,120.469 1220.57,120.803 1225.5,120.5C 1225.2,124.767 1225.54,128.934 1226.5,133C 1239.17,133.667 1251.83,133.667 1264.5,133C 1265.46,128.934 1265.8,124.767 1265.5,120.5C 1270.43,120.803 1275.26,120.469 1280,119.5C 1280.5,114.177 1280.67,108.844 1280.5,103.5C 1284.51,103.666 1288.51,103.499 1292.5,103C 1293.06,102.617 1293.39,102.117 1293.5,101.5 Z"/></g>
<g><path style="opacity:1" fill="#404446" d="M 217.5,31.5 C 385.833,31.5 554.167,31.5 722.5,31.5C 722.5,34.1667 722.5,36.8333 722.5,39.5C 554.167,39.5 385.833,39.5 217.5,39.5C 217.5,36.8333 217.5,34.1667 217.5,31.5 Z"/></g>
<g><path style="opacity:1" fill="#404446" d="M 783.5,31.5 C 952.167,31.5 1120.83,31.5 1289.5,31.5C 1289.5,34.1667 1289.5,36.8333 1289.5,39.5C 1120.83,39.5 952.167,39.5 783.5,39.5C 783.5,36.8333 783.5,34.1667 783.5,31.5 Z"/></g>
<g><path style="opacity:1" fill="#191b1c" d="M 1301.5,125.5 C 1301.5,94.8333 1301.5,64.1667 1301.5,33.5C 1299.17,33.5 1296.83,33.5 1294.5,33.5C 1294.83,56.3395 1294.5,79.0061 1293.5,101.5C 1293.5,78.5 1293.5,55.5 1293.5,32.5C 1296.5,32.5 1299.5,32.5 1302.5,32.5C 1302.83,63.6712 1302.5,94.6712 1301.5,125.5 Z"/></g>
<g><path style="opacity:1" fill="#36393b" d="M 217.5,31.5 C 385.999,30.5003 554.666,30.167 723.5,30.5C 723.5,33.8333 723.5,37.1667 723.5,40.5C 554.666,40.833 385.999,40.4997 217.5,39.5C 385.833,39.5 554.167,39.5 722.5,39.5C 722.5,36.8333 722.5,34.1667 722.5,31.5C 554.167,31.5 385.833,31.5 217.5,31.5 Z"/></g>
<g><path style="opacity:1" fill="#333638" d="M 783.5,31.5 C 952.333,30.5003 1121.33,30.167 1290.5,30.5C 1290.5,33.8333 1290.5,37.1667 1290.5,40.5C 1121.33,40.833 952.333,40.4997 783.5,39.5C 952.167,39.5 1120.83,39.5 1289.5,39.5C 1289.5,36.8333 1289.5,34.1667 1289.5,31.5C 1120.83,31.5 952.167,31.5 783.5,31.5 Z"/></g>
<g><path style="opacity:1" fill="#0f1010" d="M 91.5,144.5 C 574.167,144.333 1056.83,144.5 1539.5,145C 1571.58,150.412 1591.41,168.912 1599,200.5C 1599.67,460.833 1599.67,721.167 1599,981.5C 1592.99,1013.85 1573.82,1033.35 1541.5,1040C 1058.17,1040.67 574.833,1040.67 91.5,1040C 58.6796,1033.85 39.1796,1014.35 33,981.5C 32.3333,723.167 32.3333,464.833 33,206.5C 38.6719,172.664 58.1719,151.998 91.5,144.5 Z"/></g>
<g><path style="opacity:1" fill="#676b6c" d="M 88.5,149.5 C 572.833,149.333 1057.17,149.5 1541.5,150C 1570.88,155.718 1588.72,173.218 1595,202.5C 1595.67,461.833 1595.67,721.167 1595,980.5C 1589.78,1010.05 1572.62,1028.22 1543.5,1035C 1058.17,1035.67 572.833,1035.67 87.5,1035C 66.3348,1029.84 51.1681,1017.34 42,997.5C 40.0524,992.658 38.719,987.658 38,982.5C 37.3333,721.833 37.3333,461.167 38,200.5C 45.0151,173.652 61.8484,156.652 88.5,149.5 Z"/></g>
<g><path style="opacity:1" fill="#bb383f" d="M 1224.5,161.5 C 1237.66,160.34 1250.99,160.173 1264.5,161C 1265.06,161.383 1265.39,161.883 1265.5,162.5C 1251.87,161.554 1238.2,161.22 1224.5,161.5 Z"/></g>
<g><path style="opacity:1" fill="#d22b32" d="M 450.5,160.5 C 463.504,160.333 476.504,160.5 489.5,161C 492.913,162.077 495.413,164.244 497,167.5C 497.667,180.833 497.667,194.167 497,207.5C 495.833,210.667 493.667,212.833 490.5,214C 476.833,214.667 463.167,214.667 449.5,214C 447.714,213.215 446.214,212.049 445,210.5C 443.367,195.927 443.034,181.26 444,166.5C 446.063,164.266 448.229,162.266 450.5,160.5 Z"/></g>
<g><path style="opacity:1" fill="#d12b32" d="M 913.5,160.5 C 926.504,160.333 939.504,160.5 952.5,161C 955.539,162.031 958.039,163.865 960,166.5C 960.667,180.5 960.667,194.5 960,208.5C 959.215,210.286 958.049,211.786 956.5,213C 941.927,214.633 927.26,214.966 912.5,214C 910.083,212.337 908.25,210.171 907,207.5C 906.333,194.167 906.333,180.833 907,167.5C 908.694,164.642 910.861,162.309 913.5,160.5 Z"/></g>
<g><path style="opacity:1" fill="#cf2d33" d="M 657.5,160.5 C 670.504,160.333 683.504,160.5 696.5,161C 700.333,162.167 702.833,164.667 704,168.5C 704.667,181.5 704.667,194.5 704,207.5C 702.878,209.624 701.378,211.457 699.5,213C 685.26,214.632 670.927,214.965 656.5,214C 654.714,213.215 653.214,212.049 652,210.5C 650.367,195.927 650.034,181.26 651,166.5C 652.914,164.144 655.081,162.144 657.5,160.5 Z"/></g>
<g><path style="opacity:1" fill="#6b6a6b" d="M 451.5,164.5 C 463.838,164.333 476.171,164.5 488.5,165C 489.931,165.465 491.097,166.299 492,167.5C 493.628,180.405 493.961,193.405 493,206.5C 491.833,207.667 490.667,208.833 489.5,210C 476.5,210.667 463.5,210.667 450.5,210C 450,209.5 449.5,209 449,208.5C 447.371,195.261 447.038,181.928 448,168.5C 449.376,167.295 450.542,165.962 451.5,164.5 Z"/></g>
<g><path style="opacity:1" fill="#6a6a6b" d="M 658.5,164.5 C 670.838,164.333 683.171,164.5 695.5,165C 696.931,165.465 698.097,166.299 699,167.5C 699.667,180.833 699.667,194.167 699,207.5C 698.167,208.333 697.333,209.167 696.5,210C 683.5,210.667 670.5,210.667 657.5,210C 656.667,209.167 655.833,208.333 655,207.5C 654.333,194.5 654.333,181.5 655,168.5C 656.102,167.051 657.269,165.718 658.5,164.5 Z"/></g>
<g><path style="opacity:1" fill="#6b6a6b" d="M 915.5,164.5 C 927.838,164.333 940.171,164.5 952.5,165C 953.667,166.167 954.833,167.333 956,168.5C 956.667,181.167 956.667,193.833 956,206.5C 955.626,207.416 955.126,208.25 954.5,209C 941.261,210.629 927.928,210.962 914.5,210C 913.333,208.833 912.167,207.667 911,206.5C 910.333,194.167 910.333,181.833 911,169.5C 912.025,167.313 913.525,165.646 915.5,164.5 Z"/></g>
<g><path style="opacity:1" fill="#d42931" d="M 288.5,165.5 C 289.429,179.471 289.762,193.471 289.5,207.5C 289.089,211.079 287.089,213.246 283.5,214C 269.833,214.667 256.167,214.667 242.5,214C 240,212.833 238.167,211 237,208.5C 236.333,194.833 236.333,181.167 237,167.5C 238.167,164.333 240.333,162.167 243.5,161C 256.833,160.333 270.167,160.333 283.5,161C 285.618,162.049 287.284,163.549 288.5,165.5 Z"/></g>
<g><path style="opacity:1" fill="#6a6a6b" d="M 244.5,164.5 C 256.838,164.333 269.171,164.5 281.5,165C 282.931,165.465 284.097,166.299 285,167.5C 286.628,180.405 286.961,193.405 286,206.5C 285.167,207.5 284.333,208.5 283.5,209.5C 270.212,210.648 256.879,210.815 243.5,210C 243,209.5 242.5,209 242,208.5C 240.371,195.261 240.038,181.928 241,168.5C 242.376,167.295 243.542,165.962 244.5,164.5 Z"/></g>
<g><path style="opacity:1" fill="#ce2e34" d="M 553.5,160.5 C 566.504,160.333 579.504,160.5 592.5,161C 595.539,162.031 598.039,163.865 600,166.5C 600.667,180.167 600.667,193.833 600,207.5C 599.654,209.848 598.487,211.681 596.5,213C 582.26,214.632 567.927,214.965 553.5,214C 551.376,212.878 549.543,211.378 548,209.5C 546.369,195.594 546.036,181.594 547,167.5C 548.694,164.642 550.861,162.309 553.5,160.5 Z"/></g>
<g><path style="opacity:1" fill="#6a6b6c" d="M 555.5,164.5 C 567.838,164.333 580.171,164.5 592.5,165C 593.667,166.167 594.833,167.333 596,168.5C 596.667,181.5 596.667,194.5 596,207.5C 595.5,208 595,208.5 594.5,209C 581.261,210.629 567.928,210.962 554.5,210C 553.667,209.167 552.833,208.333 552,207.5C 551.333,194.167 551.333,180.833 552,167.5C 553.145,166.364 554.312,165.364 555.5,164.5 Z"/></g>
<g><path style="opacity:1" fill="#d42931" d="M 1114.5,207.5 C 1114.24,193.471 1114.57,179.471 1115.5,165.5C 1116.67,163.496 1118.34,161.996 1120.5,161C 1133.83,160.333 1147.17,160.333 1160.5,161C 1163.67,162.167 1165.83,164.333 1167,167.5C 1167.67,181.167 1167.67,194.833 1167,208.5C 1165.83,211 1164,212.833 1161.5,214C 1147.83,214.667 1134.17,214.667 1120.5,214C 1116.91,213.246 1114.91,211.079 1114.5,207.5 Z"/></g>
<g><path style="opacity:1" fill="#6b6a6b" d="M 1122.5,164.5 C 1134.84,164.333 1147.17,164.5 1159.5,165C 1160.67,166.167 1161.83,167.333 1163,168.5C 1163.67,181.167 1163.67,193.833 1163,206.5C 1162.63,207.416 1162.13,208.25 1161.5,209C 1154.6,210.131 1147.6,210.631 1140.5,210.5C 1134.17,210.333 1127.83,210.167 1121.5,210C 1120,209.167 1118.83,208 1118,206.5C 1117.33,194.167 1117.33,181.833 1118,169.5C 1119.02,167.313 1120.52,165.646 1122.5,164.5 Z"/></g>
<g><path style="opacity:1" fill="#c0353c" d="M 288.5,165.5 C 289.222,165.918 289.722,166.584 290,167.5C 290.827,181.006 290.66,194.34 289.5,207.5C 289.762,193.471 289.429,179.471 288.5,165.5 Z"/></g>
<g><path style="opacity:1" fill="#d12c33" d="M 346.5,160.5 C 359.504,160.333 372.504,160.5 385.5,161C 388.539,162.031 391.039,163.865 393,166.5C 393.667,180.5 393.667,194.5 393,208.5C 391.954,210.09 390.787,211.59 389.5,213C 374.927,214.633 360.26,214.966 345.5,214C 343.649,212.316 341.982,210.483 340.5,208.5C 339.334,194.846 339.167,181.179 340,167.5C 341.694,164.642 343.861,162.309 346.5,160.5 Z"/></g>
<g><path style="opacity:1" fill="#6b6a6b" d="M 348.5,164.5 C 360.838,164.333 373.171,164.5 385.5,165C 386.667,166.167 387.833,167.333 389,168.5C 389.667,181.167 389.667,193.833 389,206.5C 388.626,207.416 388.126,208.25 387.5,209C 374.261,210.629 360.928,210.962 347.5,210C 346.333,208.833 345.167,207.667 344,206.5C 343.333,193.833 343.333,181.167 344,168.5C 345.397,166.93 346.897,165.596 348.5,164.5 Z"/></g>
<g><path style="opacity:1" fill="#d12c32" d="M 1017.5,160.5 C 1030.84,160.333 1044.17,160.5 1057.5,161C 1059.61,162.141 1061.44,163.641 1063,165.5C 1064.63,179.74 1064.97,194.073 1064,208.5C 1062.5,210 1061,211.5 1059.5,213C 1045.26,214.632 1030.93,214.965 1016.5,214C 1014,212.833 1012.17,211 1011,208.5C 1010.33,194.833 1010.33,181.167 1011,167.5C 1012.69,164.642 1014.86,162.309 1017.5,160.5 Z"/></g>
<g><path style="opacity:1" fill="#6c6a6b" d="M 1018.5,164.5 C 1030.84,164.333 1043.17,164.5 1055.5,165C 1057.29,165.785 1058.79,166.951 1060,168.5C 1060.67,180.833 1060.67,193.167 1060,205.5C 1059.22,207.286 1058.05,208.786 1056.5,210C 1043.5,210.667 1030.5,210.667 1017.5,210C 1017,209.5 1016.5,209 1016,208.5C 1014.37,195.261 1014.04,181.928 1015,168.5C 1016.38,167.295 1017.54,165.962 1018.5,164.5 Z"/></g>
<g><path style="opacity:1" fill="#bc373e" d="M 1115.5,165.5 C 1114.57,179.471 1114.24,193.471 1114.5,207.5C 1113.34,194.34 1113.17,181.006 1114,167.5C 1114.28,166.584 1114.78,165.918 1115.5,165.5 Z"/></g>
<g><path style="opacity:1" fill="#d6272f" d="M 263.5,175.5 C 264.833,175.5 266.167,175.5 267.5,175.5C 267.5,183.833 267.5,192.167 267.5,200.5C 266.167,200.5 264.833,200.5 263.5,200.5C 263.83,194.132 263.496,187.798 262.5,181.5C 261.893,181.624 261.56,181.957 261.5,182.5C 258.941,185.466 256.941,185.133 255.5,181.5C 257.902,179.091 260.569,177.091 263.5,175.5 Z"/></g>
<g><path style="opacity:1" fill="#c4343a" d="M 263.5,175.5 C 264.919,174.549 266.585,174.216 268.5,174.5C 268.5,183.5 268.5,192.5 268.5,201.5C 266.5,201.5 264.5,201.5 262.5,201.5C 262.823,194.978 262.49,188.645 261.5,182.5C 261.56,181.957 261.893,181.624 262.5,181.5C 263.496,187.798 263.83,194.132 263.5,200.5C 264.833,200.5 266.167,200.5 267.5,200.5C 267.5,192.167 267.5,183.833 267.5,175.5C 266.167,175.5 264.833,175.5 263.5,175.5 Z"/></g>
<g><path style="opacity:1" fill="#d32a31" d="M 375.5,196.5 C 375.5,197.833 375.5,199.167 375.5,200.5C 369.833,200.5 364.167,200.5 358.5,200.5C 358.5,199.167 358.5,197.833 358.5,196.5C 361.768,192.729 365.268,189.062 369,185.5C 369.638,179.165 367.138,177.832 361.5,181.5C 358.177,180.062 357.844,178.229 360.5,176C 364.5,174 368.5,174 372.5,176C 376.235,179.884 376.402,184.051 373,188.5C 370.5,191 368,193.5 365.5,196C 368.817,196.498 372.15,196.665 375.5,196.5 Z"/></g>
<g><path style="opacity:1" fill="#d12b32" d="M 465.5,174.5 C 468.518,174.335 471.518,174.502 474.5,175C 478.292,177.053 479.458,180.219 478,184.5C 477.097,185.701 475.931,186.535 474.5,187C 480.353,190.451 481.019,194.785 476.5,200C 472.259,201.457 467.926,201.791 463.5,201C 461.44,199.507 461.107,197.674 462.5,195.5C 465.773,196.585 469.106,196.752 472.5,196C 473.833,194.333 473.833,192.667 472.5,191C 470.19,190.503 467.857,190.337 465.5,190.5C 465.5,188.833 465.5,187.167 465.5,185.5C 469.07,186.107 471.737,184.94 473.5,182C 473.355,181.228 473.022,180.561 472.5,180C 469.428,179.544 466.428,179.544 463.5,180C 462.643,179.311 461.977,178.478 461.5,177.5C 462.901,176.479 464.235,175.479 465.5,174.5 Z"/></g>
<g><path style="opacity:1" fill="#d22b32" d="M 1033.5,174.5 C 1045.1,173.397 1048.1,177.73 1042.5,187.5C 1046.25,189.829 1047.42,193.163 1046,197.5C 1040.26,202.773 1034.59,202.773 1029,197.5C 1027.58,193.163 1028.75,189.829 1032.5,187.5C 1028.16,182.582 1028.5,178.249 1033.5,174.5 Z"/></g>
<g><path style="opacity:1" fill="#d02c33" d="M 1136.5,174.5 C 1145.37,173.414 1150.03,177.247 1150.5,186C 1150.36,197.306 1144.7,202.473 1133.5,201.5C 1133.5,199.833 1133.5,198.167 1133.5,196.5C 1136.19,196.664 1138.85,196.497 1141.5,196C 1143.8,194.737 1144.63,192.903 1144,190.5C 1134.2,193.717 1130.2,190.051 1132,179.5C 1133.71,177.963 1135.21,176.296 1136.5,174.5 Z"/></g>
<g><path style="opacity:1" fill="#d52830" d="M 575.5,175.5 C 577.167,175.5 578.833,175.5 580.5,175.5C 580.179,181.026 580.512,186.36 581.5,191.5C 582.167,191.5 582.833,191.5 583.5,191.5C 583.5,192.833 583.5,194.167 583.5,195.5C 582.5,195.5 581.5,195.5 580.5,195.5C 580.5,197.167 580.5,198.833 580.5,200.5C 578.833,200.5 577.167,200.5 575.5,200.5C 575.5,198.833 575.5,197.167 575.5,195.5C 571.833,195.5 568.167,195.5 564.5,195.5C 564.298,193.011 564.798,190.677 566,188.5C 569.188,184.099 572.355,179.766 575.5,175.5 Z"/></g>
<g><path style="opacity:1" fill="#974f53" d="M 575.5,175.5 C 577.265,174.539 579.265,174.205 581.5,174.5C 581.5,180.167 581.5,185.833 581.5,191.5C 580.512,186.36 580.179,181.026 580.5,175.5C 578.833,175.5 577.167,175.5 575.5,175.5 Z"/></g>
<g><path style="opacity:1" fill="#d02c33" d="M 670.5,174.5 C 675.167,174.5 679.833,174.5 684.5,174.5C 684.5,176.167 684.5,177.833 684.5,179.5C 681.5,179.5 678.5,179.5 675.5,179.5C 675.714,181.144 675.38,182.644 674.5,184C 683.178,183.343 687.012,187.177 686,195.5C 684.833,198 683,199.833 680.5,201C 676.775,201.76 673.108,201.593 669.5,200.5C 668.167,198.833 668.167,197.167 669.5,195.5C 672.438,196.575 675.438,196.741 678.5,196C 680.602,194.267 680.935,192.267 679.5,190C 676.242,189.788 673.076,189.288 670,188.5C 669.227,183.748 669.393,179.081 670.5,174.5 Z"/></g>
<g><path style="opacity:1" fill="#cf2d33" d="M 924.5,174.5 C 930.833,174.5 937.167,174.5 943.5,174.5C 941.171,183.668 937.837,192.501 933.5,201C 931.421,201.808 929.421,201.641 927.5,200.5C 931.02,193.672 934.02,186.672 936.5,179.5C 932.5,179.5 928.5,179.5 924.5,179.5C 924.5,177.833 924.5,176.167 924.5,174.5 Z"/></g>
<g><path style="opacity:1" fill="#6a6b6b" d="M 1039.5,183.5 C 1038.29,184.686 1036.96,184.686 1035.5,183.5C 1035.5,182.5 1035.5,181.5 1035.5,180.5C 1036.83,180.5 1038.17,180.5 1039.5,180.5C 1039.5,181.5 1039.5,182.5 1039.5,183.5 Z"/></g>
<g><path style="opacity:1" fill="#8b585a" d="M 1039.5,183.5 C 1039.5,182.5 1039.5,181.5 1039.5,180.5C 1038.17,180.5 1036.83,180.5 1035.5,180.5C 1035.5,181.5 1035.5,182.5 1035.5,183.5C 1034.09,180.971 1034.93,179.304 1038,178.5C 1038.77,178.645 1039.44,178.978 1040,179.5C 1040.76,181.066 1040.6,182.399 1039.5,183.5 Z"/></g>
<g><path style="opacity:1" fill="#6e6869" d="M 1138.5,179.5 C 1144.49,179.664 1145.82,182.164 1142.5,187C 1140.89,187.72 1139.39,187.554 1138,186.5C 1137.3,184.071 1137.46,181.738 1138.5,179.5 Z"/></g>
<g><path style="opacity:1" fill="#805e60" d="M 573.5,183.5 C 575.369,185.635 576.036,188.302 575.5,191.5C 573.396,191.799 571.396,191.466 569.5,190.5C 571.616,188.6 572.949,186.267 573.5,183.5 Z"/></g>
<g><path style="opacity:1" fill="#766565" d="M 1035.5,190.5 C 1040.22,190.206 1041.89,192.206 1040.5,196.5C 1034.29,197.967 1032.62,195.967 1035.5,190.5 Z"/></g>
<g><path style="opacity:1" fill="#974f53" d="M 583.5,191.5 C 584.451,192.919 584.784,194.585 584.5,196.5C 583.5,196.5 582.5,196.5 581.5,196.5C 581.5,198.167 581.5,199.833 581.5,201.5C 579.167,201.5 576.833,201.5 574.5,201.5C 574.5,199.833 574.5,198.167 574.5,196.5C 570.958,196.813 567.625,196.479 564.5,195.5C 568.167,195.5 571.833,195.5 575.5,195.5C 575.5,197.167 575.5,198.833 575.5,200.5C 577.167,200.5 578.833,200.5 580.5,200.5C 580.5,198.833 580.5,197.167 580.5,195.5C 581.5,195.5 582.5,195.5 583.5,195.5C 583.5,194.167 583.5,192.833 583.5,191.5 Z"/></g>
<g><path style="opacity:1" fill="#a84449" d="M 358.5,196.5 C 358.5,197.833 358.5,199.167 358.5,200.5C 364.167,200.5 369.833,200.5 375.5,200.5C 375.5,199.167 375.5,197.833 375.5,196.5C 376.451,197.919 376.784,199.585 376.5,201.5C 370.167,201.5 363.833,201.5 357.5,201.5C 357.216,199.585 357.549,197.919 358.5,196.5 Z"/></g>
<g><path style="opacity:1" fill="#d22a32" d="M 1224.5,161.5 C 1238.2,161.22 1251.87,161.554 1265.5,162.5C 1268.09,163.254 1269.92,164.921 1271,167.5C 1271.67,180.833 1271.67,194.167 1271,207.5C 1270.17,211 1268,213.167 1264.5,214C 1250.83,214.667 1237.17,214.667 1223.5,214C 1221.71,213.215 1220.21,212.049 1219,210.5C 1217.39,196.235 1217.05,181.902 1218,167.5C 1219.41,164.591 1221.57,162.591 1224.5,161.5 Z"/></g>
<g><path style="opacity:1" fill="#6c6a6a" d="M 1225.5,164.5 C 1237.84,164.333 1250.17,164.5 1262.5,165C 1264.29,165.785 1265.79,166.951 1267,168.5C 1267.67,181.167 1267.67,193.833 1267,206.5C 1266.17,207.5 1265.33,208.5 1264.5,209.5C 1251.55,210.647 1238.55,210.814 1225.5,210C 1224.58,209.626 1223.75,209.126 1223,208.5C 1221.37,195.261 1221.04,181.928 1222,168.5C 1223.38,167.295 1224.54,165.962 1225.5,164.5 Z"/></g>
<g><path style="opacity:1" fill="#935155" d="M 1232.5,175.5 C 1234.26,174.539 1236.26,174.205 1238.5,174.5C 1238.5,183.5 1238.5,192.5 1238.5,201.5C 1236.17,201.5 1233.83,201.5 1231.5,201.5C 1231.5,195.167 1231.5,188.833 1231.5,182.5C 1232.5,187.738 1232.83,193.738 1232.5,200.5C 1234.17,200.5 1235.83,200.5 1237.5,200.5C 1237.5,192.167 1237.5,183.833 1237.5,175.5C 1235.83,175.5 1234.17,175.5 1232.5,175.5 Z"/></g>
<g><path style="opacity:1" fill="#d12b32" d="M 1250.5,174.5 C 1255.38,173.861 1259.22,175.527 1262,179.5C 1262.87,185.917 1262.54,192.251 1261,198.5C 1253.51,203.67 1248.18,202.003 1245,193.5C 1244.25,188.428 1244.58,183.428 1246,178.5C 1247.4,176.93 1248.9,175.596 1250.5,174.5 Z"/></g>
<g><path style="opacity:1" fill="#6f6869" d="M 1252.5,179.5 C 1254.39,179.297 1255.89,179.963 1257,181.5C 1257.67,185.5 1257.67,189.5 1257,193.5C 1255,197.5 1253,197.5 1251,193.5C 1249.97,188.543 1250.47,183.876 1252.5,179.5 Z"/></g>
<g><path style="opacity:1" fill="#d52830" d="M 1232.5,175.5 C 1234.17,175.5 1235.83,175.5 1237.5,175.5C 1237.5,183.833 1237.5,192.167 1237.5,200.5C 1235.83,200.5 1234.17,200.5 1232.5,200.5C 1232.83,193.738 1232.5,187.738 1231.5,182.5C 1229.11,185.27 1227.11,185.103 1225.5,182C 1227.38,179.384 1229.72,177.218 1232.5,175.5 Z"/></g>
<g><path style="opacity:1" fill="#cf2c33" d="M 810.5,160.5 C 823.837,160.333 837.171,160.5 850.5,161C 852.609,162.141 854.442,163.641 856,165.5C 857.631,179.406 857.964,193.406 857,207.5C 855.878,209.624 854.378,211.457 852.5,213C 838.26,214.632 823.927,214.965 809.5,214C 807.714,213.215 806.214,212.049 805,210.5C 803.384,195.902 803.051,181.235 804,166.5C 806.063,164.266 808.229,162.266 810.5,160.5 Z"/></g>
<g><path style="opacity:1" fill="#6c6a6a" d="M 811.5,164.5 C 823.838,164.333 836.171,164.5 848.5,165C 850.286,165.785 851.786,166.951 853,168.5C 853.667,180.833 853.667,193.167 853,205.5C 852.215,207.286 851.049,208.786 849.5,210C 836.5,210.667 823.5,210.667 810.5,210C 810,209.5 809.5,209 809,208.5C 807.371,195.261 807.038,181.928 808,168.5C 809.376,167.295 810.542,165.962 811.5,164.5 Z"/></g>
<g><path style="opacity:1" fill="#d12c33" d="M 829.5,174.5 C 832.5,174.5 835.5,174.5 838.5,174.5C 838.5,176.167 838.5,177.833 838.5,179.5C 835.813,179.336 833.146,179.503 830.5,180C 827.8,180.949 826.967,182.783 828,185.5C 838.949,183.474 842.282,187.807 838,198.5C 831.035,203.453 825.702,202.12 822,194.5C 819.411,185.706 821.911,179.04 829.5,174.5 Z"/></g>
<g><path style="opacity:1" fill="#736667" d="M 828.5,188.5 C 833.984,188.481 835.65,190.981 833.5,196C 827.593,196.746 825.927,194.246 828.5,188.5 Z"/></g>
<g><path style="opacity:1" fill="#050606" d="M 1509.5,254.5 C 1510.16,341.646 1510.82,428.646 1511.5,515.5C 1520.83,515.5 1530.17,515.5 1539.5,515.5C 1548.02,517.357 1553.69,522.357 1556.5,530.5C 1556.81,572.857 1556.48,615.19 1555.5,657.5C 1552.08,664.573 1546.41,668.573 1538.5,669.5C 1529.5,669.5 1520.5,669.5 1511.5,669.5C 1511.5,753.167 1511.5,836.833 1511.5,920.5C 1509.81,937.691 1500.48,948.191 1483.5,952C 1185.17,952.333 886.833,952.667 588.5,953C 504.668,953.94 420.834,954.774 337,955.5C 273.812,955.376 210.646,954.209 147.5,952C 132.367,948.369 123.701,938.869 121.5,923.5C 121.171,700.812 121.504,478.146 122.5,255.5C 127.378,243.127 136.378,235.627 149.5,233C 479.001,232.226 808.501,232.392 1138,233.5C 1211.01,233.178 1284.01,232.178 1357,230.5C 1398.17,231.198 1439.34,232.032 1480.5,233C 1494.39,234.754 1504.06,241.921 1509.5,254.5 Z"/></g>
<g><path style="opacity:1" fill="#676b6c" d="M 1505.5,256.5 C 1506.49,342.478 1506.82,428.478 1506.5,514.5C 1476.66,514.169 1447,514.502 1417.5,515.5C 1410.61,517.89 1405.77,522.557 1403,529.5C 1402.33,571.167 1402.33,612.833 1403,654.5C 1405.61,663.279 1411.44,668.279 1420.5,669.5C 1449,670.498 1477.66,670.831 1506.5,670.5C 1506.5,754.5 1506.5,838.5 1506.5,922.5C 1504.48,937.02 1496.15,945.52 1481.5,948C 1174.17,948.333 866.833,948.667 559.5,949C 422.821,952.583 286.154,952.249 149.5,948C 140.053,945.871 132.886,940.704 128,932.5C 127.721,929.543 126.887,926.877 125.5,924.5C 125.171,702.146 125.504,479.812 126.5,257.5C 130.607,246.234 138.607,239.401 150.5,237C 479.667,236.227 808.834,236.393 1138,237.5C 1236.49,235.93 1334.99,235.43 1433.5,236C 1450.51,236.43 1467.51,237.097 1484.5,238C 1494.49,240.828 1501.49,246.995 1505.5,256.5 Z"/></g>
<g><path style="opacity:1" fill="#242526" d="M 122.5,255.5 C 121.504,478.146 121.171,700.812 121.5,923.5C 120.334,702 120.167,480.334 121,258.5C 121.232,257.263 121.732,256.263 122.5,255.5 Z"/></g>
<g><path style="opacity:1" fill="#37393a" d="M 126.5,257.5 C 125.504,479.812 125.171,702.146 125.5,924.5C 124.334,703.334 124.167,482 125,260.5C 125.232,259.263 125.732,258.263 126.5,257.5 Z"/></g>
<g><path style="opacity:1" fill="#4d5050" d="M 1505.5,256.5 C 1506.27,257.263 1506.77,258.263 1507,259.5C 1507.5,344.833 1507.67,430.166 1507.5,515.5C 1477.5,515.5 1447.5,515.5 1417.5,515.5C 1447,514.502 1476.66,514.169 1506.5,514.5C 1506.82,428.478 1506.49,342.478 1505.5,256.5 Z"/></g>
<g><path style="opacity:1" fill="#131314" d="M 1509.5,254.5 C 1511.17,257.507 1511.84,260.84 1511.5,264.5C 1511.5,348.167 1511.5,431.833 1511.5,515.5C 1510.82,428.646 1510.16,341.646 1509.5,254.5 Z"/></g>
<g><path style="opacity:1" fill="#4c4f50" d="M 1511.5,264.5 C 1512.5,347.665 1512.83,430.998 1512.5,514.5C 1521.68,514.173 1530.68,514.507 1539.5,515.5C 1530.17,515.5 1520.83,515.5 1511.5,515.5C 1511.5,431.833 1511.5,348.167 1511.5,264.5 Z"/></g>
<g><path style="opacity:1" fill="#0f1010" d="M 1313.5,283.5 C 1313.67,284.492 1313.34,285.158 1312.5,285.5C 1309.58,281.089 1305.58,277.923 1300.5,276C 935.833,275.333 571.167,275.333 206.5,276C 199.034,278.625 194.701,283.792 193.5,291.5C 192.662,291.158 192.328,290.492 192.5,289.5C 193.395,280.432 198.395,274.932 207.5,273C 571.5,272.333 935.5,272.333 1299.5,273C 1305.85,274.334 1310.52,277.834 1313.5,283.5 Z"/></g>
<g><path style="opacity:1" fill="#515252" d="M 1312.5,285.5 C 1312.63,287.216 1312.96,288.883 1313.5,290.5C 1313.5,318.5 1313.5,346.5 1313.5,374.5C 940.167,374.5 566.833,374.5 193.5,374.5C 193.5,346.833 193.5,319.167 193.5,291.5C 194.701,283.792 199.034,278.625 206.5,276C 571.167,275.333 935.833,275.333 1300.5,276C 1305.58,277.923 1309.58,281.089 1312.5,285.5 Z"/></g>
<g><path style="opacity:1" fill="#0b0b0b" d="M 192.5,289.5 C 192.328,290.492 192.662,291.158 193.5,291.5C 193.5,319.167 193.5,346.833 193.5,374.5C 193.5,374.833 193.5,375.167 193.5,375.5C 193.833,550.001 193.5,724.334 192.5,898.5C 191.168,695.373 191.168,492.373 192.5,289.5 Z"/></g>
<g><path style="opacity:1" fill="#dad9db" d="M 1105.5,322.5 C 1104.44,320.192 1103.28,317.858 1102,315.5C 1100.96,317.833 1100.12,320.166 1099.5,322.5C 1099.59,323.496 1099.25,324.329 1098.5,325C 1095.24,325.784 1092.07,325.617 1089,324.5C 1088.29,325.973 1087.12,326.64 1085.5,326.5C 1085.5,326.167 1085.5,325.833 1085.5,325.5C 1086.83,320.167 1086.83,314.833 1085.5,309.5C 1076.35,308.506 1067.01,308.173 1057.5,308.5C 1056.83,313.349 1056.17,318.349 1055.5,323.5C 1054.58,324.127 1053.58,324.461 1052.5,324.5C 1056.04,319.351 1054.88,316.018 1049,314.5C 1047.67,314.755 1046.67,315.422 1046,316.5C 1045.4,319.221 1045.57,321.887 1046.5,324.5C 1044.16,322.035 1042.66,319.035 1042,315.5C 1041.72,316.416 1041.22,317.082 1040.5,317.5C 1040.24,316.022 1040.57,314.689 1041.5,313.5C 1045.17,310.667 1048.83,307.833 1052.5,305C 1066.26,302.729 1079.92,303.062 1093.5,306C 1097.09,309.05 1100.59,312.216 1104,315.5C 1104.98,317.74 1105.48,320.073 1105.5,322.5 Z"/></g>
<g><path style="opacity:1" fill="#e1e1e3" d="M 1140.5,303.5 C 1150.54,303.287 1160.54,303.787 1170.5,305C 1174.6,307.467 1178.43,310.301 1182,313.5C 1186.14,322.412 1187.48,331.746 1186,341.5C 1183.94,347.211 1179.94,350.877 1174,352.5C 1173.23,352.355 1172.56,352.022 1172,351.5C 1170.6,347.793 1169.1,344.126 1167.5,340.5C 1156.83,339.167 1146.17,339.167 1135.5,340.5C 1134,344.167 1132.5,347.833 1131,351.5C 1123.4,351.992 1118.73,348.325 1117,340.5C 1115.88,331.908 1116.88,323.574 1120,315.5C 1124.89,307.978 1131.72,303.978 1140.5,303.5 Z"/></g>
<g><path style="opacity:1" fill="#cccbcb" d="M 1238.5,303.5 C 1257,302.338 1275.66,302.171 1294.5,303C 1296.09,304.046 1297.59,305.213 1299,306.5C 1299.83,318.341 1299.66,330.007 1298.5,341.5C 1298.67,330.828 1298.5,320.161 1298,309.5C 1297.03,305.905 1296.19,306.238 1295.5,310.5C 1294.04,309.542 1292.71,308.376 1291.5,307C 1274.84,306.5 1258.17,306.333 1241.5,306.5C 1258.71,305.943 1276.05,305.11 1293.5,304C 1275.17,303.5 1256.84,303.333 1238.5,303.5 Z"/></g>
<g><path style="opacity:1" fill="#1a1a1a" d="M 1085.5,309.5 C 1086.83,314.833 1086.83,320.167 1085.5,325.5C 1082.5,325.5 1079.5,325.5 1076.5,325.5C 1076.5,320.5 1076.5,315.5 1076.5,310.5C 1074.9,310.232 1073.57,310.566 1072.5,311.5C 1071.19,312.476 1069.85,313.476 1068.5,314.5C 1069.29,316.488 1070.46,316.821 1072,315.5C 1072.5,318.482 1072.66,321.482 1072.5,324.5C 1068.03,325.486 1063.36,325.819 1058.5,325.5C 1058.5,320.167 1058.5,314.833 1058.5,309.5C 1067.5,309.5 1076.5,309.5 1085.5,309.5 Z"/></g>
<g><path style="opacity:1" fill="#1a1a1a" d="M 1165.5,309.5 C 1165.5,314.833 1165.5,320.167 1165.5,325.5C 1162.83,325.5 1160.17,325.5 1157.5,325.5C 1157.74,324.209 1157.4,323.209 1156.5,322.5C 1155.02,322.762 1153.69,322.429 1152.5,321.5C 1154.44,319.72 1155.78,317.553 1156.5,315C 1156.19,313.541 1155.53,312.374 1154.5,311.5C 1152.71,310.378 1150.71,310.211 1148.5,311C 1147.21,312.292 1147.21,313.458 1148.5,314.5C 1149.83,314.5 1151.17,314.5 1152.5,314.5C 1152.65,315.552 1152.48,316.552 1152,317.5C 1150.29,319.037 1148.79,320.704 1147.5,322.5C 1146.6,323.209 1146.26,324.209 1146.5,325.5C 1143.83,325.5 1141.17,325.5 1138.5,325.5C 1138.5,320.167 1138.5,314.833 1138.5,309.5C 1147.5,309.5 1156.5,309.5 1165.5,309.5 Z"/></g>
<g><path style="opacity:1" fill="#bcbbba" d="M 1224.5,308.5 C 1226.17,308.5 1227.83,308.5 1229.5,308.5C 1229.5,319.5 1229.5,330.5 1229.5,341.5C 1227.83,341.5 1226.17,341.5 1224.5,341.5C 1224.5,330.5 1224.5,319.5 1224.5,308.5 Z"/></g>
<g><path style="opacity:1" fill="#dcdada" d="M 1225.5,309.5 C 1226.5,309.5 1227.5,309.5 1228.5,309.5C 1228.5,319.833 1228.5,330.167 1228.5,340.5C 1227.5,340.5 1226.5,340.5 1225.5,340.5C 1225.5,330.167 1225.5,319.833 1225.5,309.5 Z"/></g>
<g><path style="opacity:1" fill="#979696" d="M 1154.5,311.5 C 1152.8,311.34 1151.13,311.506 1149.5,312C 1148.75,312.671 1148.41,313.504 1148.5,314.5C 1147.21,313.458 1147.21,312.292 1148.5,311C 1150.71,310.211 1152.71,310.378 1154.5,311.5 Z"/></g>
<g><path style="opacity:1" fill="#e8e8e8" d="M 1154.5,311.5 C 1155.53,312.374 1156.19,313.541 1156.5,315C 1155.78,317.553 1154.44,319.72 1152.5,321.5C 1153.69,322.429 1155.02,322.762 1156.5,322.5C 1155.49,323.765 1153.99,324.431 1152,324.5C 1150.01,324.431 1148.51,323.765 1147.5,322.5C 1148.79,320.704 1150.29,319.037 1152,317.5C 1152.48,316.552 1152.65,315.552 1152.5,314.5C 1151.17,314.5 1149.83,314.5 1148.5,314.5C 1148.41,313.504 1148.75,312.671 1149.5,312C 1151.13,311.506 1152.8,311.34 1154.5,311.5 Z"/></g>
<g><path style="opacity:1" fill="#737273" d="M 1170.5,315.5 C 1171.45,314.848 1172.62,314.514 1174,314.5C 1175.68,314.608 1176.85,315.275 1177.5,316.5C 1175.28,315.631 1172.95,315.298 1170.5,315.5 Z"/></g>
<g><path style="opacity:1" fill="#252525" d="M 1052.5,324.5 C 1050.61,325.742 1048.61,325.742 1046.5,324.5C 1045.57,321.887 1045.4,319.221 1046,316.5C 1046.67,315.422 1047.67,314.755 1049,314.5C 1054.88,316.018 1056.04,319.351 1052.5,324.5 Z"/></g>
<g><path style="opacity:1" fill="#242424" d="M 1099.5,322.5 C 1092.36,326.576 1089.2,324.576 1090,316.5C 1096.23,313.197 1099.4,315.197 1099.5,322.5 Z"/></g>
<g><path style="opacity:1" fill="#232323" d="M 1126.5,314.5 C 1133.8,314.602 1135.8,317.769 1132.5,324C 1124.42,324.805 1122.42,321.638 1126.5,314.5 Z"/></g>
<g><path style="opacity:1" fill="#1d1d1d" d="M 1170.5,315.5 C 1172.95,315.298 1175.28,315.631 1177.5,316.5C 1179.06,324.426 1176.23,326.426 1169,322.5C 1168.17,319.829 1168.67,317.496 1170.5,315.5 Z"/></g>
<g><path style="opacity:1" fill="#e5e5e6" d="M 1057.5,308.5 C 1057.5,314.5 1057.5,320.5 1057.5,326.5C 1066.83,326.5 1076.17,326.5 1085.5,326.5C 1087.12,326.64 1088.29,325.973 1089,324.5C 1092.07,325.617 1095.24,325.784 1098.5,325C 1099.25,324.329 1099.59,323.496 1099.5,322.5C 1100.12,320.166 1100.96,317.833 1102,315.5C 1103.28,317.858 1104.44,320.192 1105.5,322.5C 1106.96,329.886 1106.79,337.22 1105,344.5C 1102.22,349.462 1098.06,352.128 1092.5,352.5C 1091.51,348.039 1089.85,343.873 1087.5,340C 1077.17,339.333 1066.83,339.333 1056.5,340C 1051.81,355.905 1045.64,356.405 1038,341.5C 1037.33,336.167 1037.33,330.833 1038,325.5C 1038.28,322.543 1039.11,319.877 1040.5,317.5C 1041.22,317.082 1041.72,316.416 1042,315.5C 1042.66,319.035 1044.16,322.035 1046.5,324.5C 1048.61,325.742 1050.61,325.742 1052.5,324.5C 1053.58,324.461 1054.58,324.127 1055.5,323.5C 1056.17,318.349 1056.83,313.349 1057.5,308.5 Z"/></g>
<g><path style="opacity:1" fill="#d4d2d2" d="M 1216.5,315.5 C 1217.83,315.5 1219.17,315.5 1220.5,315.5C 1220.5,324.167 1220.5,332.833 1220.5,341.5C 1219.17,341.5 1217.83,341.5 1216.5,341.5C 1216.5,332.833 1216.5,324.167 1216.5,315.5 Z"/></g>
<g><path style="opacity:1" fill="#a6a3a3" d="M 1208.5,322.5 C 1209.57,321.566 1210.9,321.232 1212.5,321.5C 1212.5,328.167 1212.5,334.833 1212.5,341.5C 1210.83,341.5 1209.17,341.5 1207.5,341.5C 1207.18,334.978 1207.51,328.645 1208.5,322.5 Z"/></g>
<g><path style="opacity:1" fill="#d9d7d7" d="M 1208.5,322.5 C 1209.5,322.5 1210.5,322.5 1211.5,322.5C 1211.5,328.5 1211.5,334.5 1211.5,340.5C 1210.5,340.5 1209.5,340.5 1208.5,340.5C 1208.5,334.5 1208.5,328.5 1208.5,322.5 Z"/></g>
<g><path style="opacity:1" fill="#686767" d="M 1057.5,308.5 C 1067.01,308.173 1076.35,308.506 1085.5,309.5C 1076.5,309.5 1067.5,309.5 1058.5,309.5C 1058.5,314.833 1058.5,320.167 1058.5,325.5C 1063.36,325.819 1068.03,325.486 1072.5,324.5C 1073.5,324.5 1074.5,324.5 1075.5,324.5C 1075.5,320.167 1075.5,315.833 1075.5,311.5C 1074.5,311.5 1073.5,311.5 1072.5,311.5C 1073.57,310.566 1074.9,310.232 1076.5,310.5C 1076.5,315.5 1076.5,320.5 1076.5,325.5C 1079.5,325.5 1082.5,325.5 1085.5,325.5C 1085.5,325.833 1085.5,326.167 1085.5,326.5C 1076.17,326.5 1066.83,326.5 1057.5,326.5C 1057.5,320.5 1057.5,314.5 1057.5,308.5 Z"/></g>
<g><path style="opacity:1" fill="#d5d5d5" d="M 1072.5,311.5 C 1073.5,311.5 1074.5,311.5 1075.5,311.5C 1075.5,315.833 1075.5,320.167 1075.5,324.5C 1074.5,324.5 1073.5,324.5 1072.5,324.5C 1072.66,321.482 1072.5,318.482 1072,315.5C 1070.46,316.821 1069.29,316.488 1068.5,314.5C 1069.85,313.476 1071.19,312.476 1072.5,311.5 Z"/></g>
<g><path style="opacity:1" fill="#5f5e5e" d="M 1165.5,309.5 C 1156.5,309.5 1147.5,309.5 1138.5,309.5C 1138.5,314.833 1138.5,320.167 1138.5,325.5C 1141.17,325.5 1143.83,325.5 1146.5,325.5C 1146.26,324.209 1146.6,323.209 1147.5,322.5C 1148.51,323.765 1150.01,324.431 1152,324.5C 1153.99,324.431 1155.49,323.765 1156.5,322.5C 1157.4,323.209 1157.74,324.209 1157.5,325.5C 1160.17,325.5 1162.83,325.5 1165.5,325.5C 1156.35,326.494 1147.01,326.827 1137.5,326.5C 1137.5,320.5 1137.5,314.5 1137.5,308.5C 1147.01,308.173 1156.35,308.506 1165.5,309.5 Z"/></g>
<g><path style="opacity:1" fill="#d5d3d3" d="M 1199.5,327.5 C 1200.83,327.5 1202.17,327.5 1203.5,327.5C 1203.5,332.167 1203.5,336.833 1203.5,341.5C 1202.17,341.5 1200.83,341.5 1199.5,341.5C 1199.5,336.833 1199.5,332.167 1199.5,327.5 Z"/></g>
<g><path style="opacity:1" fill="#cecccc" d="M 1190.5,331.5 C 1192.17,331.5 1193.83,331.5 1195.5,331.5C 1195.5,334.833 1195.5,338.167 1195.5,341.5C 1193.83,341.5 1192.17,341.5 1190.5,341.5C 1190.5,338.167 1190.5,334.833 1190.5,331.5 Z"/></g>
<g><path style="opacity:1" fill="#e2e1e0" d="M 1238.5,303.5 C 1256.84,303.333 1275.17,303.5 1293.5,304C 1276.05,305.11 1258.71,305.943 1241.5,306.5C 1240.27,307.306 1239.27,308.306 1238.5,309.5C 1237.17,318.833 1237.17,328.167 1238.5,337.5C 1239.03,339.23 1240.03,340.564 1241.5,341.5C 1258.33,342.662 1275.33,342.828 1292.5,342C 1293.25,341.329 1293.59,340.496 1293.5,339.5C 1293.78,338.711 1294.28,338.044 1295,337.5C 1295.5,328.506 1295.67,319.506 1295.5,310.5C 1296.19,306.238 1297.03,305.905 1298,309.5C 1298.5,320.161 1298.67,330.828 1298.5,341.5C 1297.36,342.801 1296.03,343.968 1294.5,345C 1275.5,345.667 1256.5,345.667 1237.5,345C 1236.33,343.833 1235.17,342.667 1234,341.5C 1233.33,329.833 1233.33,318.167 1234,306.5C 1235.13,304.859 1236.63,303.859 1238.5,303.5 Z"/></g>
<g><path style="opacity:1" fill="#bcbbbb" d="M 1293.5,339.5 C 1293.59,340.496 1293.25,341.329 1292.5,342C 1275.33,342.828 1258.33,342.662 1241.5,341.5C 1258.17,341.667 1274.84,341.5 1291.5,341C 1292.04,340.283 1292.71,339.783 1293.5,339.5 Z"/></g>
<g><path style="opacity:1" fill="#2b2a2a" d="M 1241.5,306.5 C 1258.17,306.333 1274.84,306.5 1291.5,307C 1292.71,308.376 1294.04,309.542 1295.5,310.5C 1295.67,319.506 1295.5,328.506 1295,337.5C 1294.28,338.044 1293.78,338.711 1293.5,339.5C 1292.71,339.783 1292.04,340.283 1291.5,341C 1274.84,341.5 1258.17,341.667 1241.5,341.5C 1240.03,340.564 1239.03,339.23 1238.5,337.5C 1238.22,335.585 1238.55,333.919 1239.5,332.5C 1239.95,333.458 1240.62,334.292 1241.5,335C 1255.83,335.667 1270.17,335.667 1284.5,335C 1285.38,334.292 1286.05,333.458 1286.5,332.5C 1287.17,330.5 1287.83,328.5 1288.5,326.5C 1290.17,326.5 1291.83,326.5 1293.5,326.5C 1293.5,324.833 1293.5,323.167 1293.5,321.5C 1291.59,321.216 1289.92,321.549 1288.5,322.5C 1287.83,319.167 1287.17,315.833 1286.5,312.5C 1285.71,312.217 1285.04,311.717 1284.5,311C 1270.17,310.333 1255.83,310.333 1241.5,311C 1240.62,311.708 1239.95,312.542 1239.5,313.5C 1238.57,312.432 1238.23,311.099 1238.5,309.5C 1239.27,308.306 1240.27,307.306 1241.5,306.5 Z"/></g>
<g><path style="opacity:1" fill="#9b9999" d="M 1288.5,326.5 C 1288.5,325.167 1288.5,323.833 1288.5,322.5C 1289.92,321.549 1291.59,321.216 1293.5,321.5C 1293.5,323.167 1293.5,324.833 1293.5,326.5C 1291.83,326.5 1290.17,326.5 1288.5,326.5 Z"/></g>
<g><path style="opacity:1" fill="#585756" d="M 1286.5,312.5 C 1287.17,315.833 1287.83,319.167 1288.5,322.5C 1288.5,323.833 1288.5,325.167 1288.5,326.5C 1287.83,328.5 1287.17,330.5 1286.5,332.5C 1286.5,325.833 1286.5,319.167 1286.5,312.5 Z"/></g>
<g><path style="opacity:1" fill="#dbd8d8" d="M 1286.5,312.5 C 1286.5,319.167 1286.5,325.833 1286.5,332.5C 1286.05,333.458 1285.38,334.292 1284.5,335C 1270.17,335.667 1255.83,335.667 1241.5,335C 1240.62,334.292 1239.95,333.458 1239.5,332.5C 1239.5,326.167 1239.5,319.833 1239.5,313.5C 1239.95,312.542 1240.62,311.708 1241.5,311C 1255.83,310.333 1270.17,310.333 1284.5,311C 1285.04,311.717 1285.71,312.217 1286.5,312.5 Z"/></g>
<g><path style="opacity:1" fill="#e24247" d="M 1259.5,318.5 C 1258.96,318.56 1258.62,318.893 1258.5,319.5C 1261.09,320.48 1263.75,320.813 1266.5,320.5C 1267.17,320.5 1267.5,320.833 1267.5,321.5C 1267.17,322.167 1266.83,322.833 1266.5,323.5C 1263.75,323.187 1261.09,323.52 1258.5,324.5C 1261.43,325.484 1264.43,325.817 1267.5,325.5C 1267.5,326.5 1267.5,327.5 1267.5,328.5C 1264.1,328.82 1260.77,328.487 1257.5,327.5C 1256.75,326.264 1256.42,324.93 1256.5,323.5C 1256.5,322.833 1256.5,322.167 1256.5,321.5C 1256.26,319.533 1256.59,317.699 1257.5,316C 1260.82,315.502 1264.15,315.335 1267.5,315.5C 1267.5,316.5 1267.5,317.5 1267.5,318.5C 1264.83,318.5 1262.17,318.5 1259.5,318.5 Z"/></g>
<g><path style="opacity:1" fill="#646464" d="M 1267.5,321.5 C 1270.18,321.462 1272.68,322.129 1275,323.5C 1276.97,321.628 1279.14,321.295 1281.5,322.5C 1277.73,325.225 1278.06,327.725 1282.5,330C 1279.33,331.037 1276.83,330.204 1275,327.5C 1273.52,328.756 1271.85,329.756 1270,330.5C 1269.17,330.333 1268.33,330.167 1267.5,330C 1268.83,328.667 1270.17,327.333 1271.5,326C 1270.35,324.117 1268.68,323.284 1266.5,323.5C 1266.83,322.833 1267.17,322.167 1267.5,321.5 Z"/></g>
<g><path style="opacity:1" fill="#5f5f60" d="M 1256.5,321.5 C 1256.5,322.167 1256.5,322.833 1256.5,323.5C 1254.52,326.146 1252.19,328.479 1249.5,330.5C 1246.39,328.818 1244.06,326.318 1242.5,323C 1242.83,322.5 1243.17,322 1243.5,321.5C 1245.5,323.167 1247.5,324.833 1249.5,326.5C 1250.94,325.135 1252.27,323.635 1253.5,322C 1254.45,321.517 1255.45,321.351 1256.5,321.5 Z"/></g>
<g><path style="opacity:1" fill="#e69da3" d="M 1259.5,318.5 C 1261.83,319.167 1264.17,319.833 1266.5,320.5C 1263.75,320.813 1261.09,320.48 1258.5,319.5C 1258.62,318.893 1258.96,318.56 1259.5,318.5 Z"/></g>
<g><path style="opacity:1" fill="#464545" d="M 1238.5,309.5 C 1238.23,311.099 1238.57,312.432 1239.5,313.5C 1239.5,319.833 1239.5,326.167 1239.5,332.5C 1238.55,333.919 1238.22,335.585 1238.5,337.5C 1237.17,328.167 1237.17,318.833 1238.5,309.5 Z"/></g>
<g><path style="opacity:1" fill="#2a2926" d="M 1056.5,349.5 C 1066.83,349.5 1077.17,349.5 1087.5,349.5C 1087.5,351.167 1087.5,352.833 1087.5,354.5C 1088.5,354.5 1089.5,354.5 1090.5,354.5C 1090.5,356.5 1090.5,358.5 1090.5,360.5C 1089.5,360.5 1088.5,360.5 1087.5,360.5C 1087.5,362.5 1087.5,364.5 1087.5,366.5C 1077.17,366.5 1066.83,366.5 1056.5,366.5C 1056.5,360.833 1056.5,355.167 1056.5,349.5 Z"/></g>
<g><path style="opacity:1" fill="#262323" d="M 1135.5,349.5 C 1145.83,349.5 1156.17,349.5 1166.5,349.5C 1166.79,352.397 1167.45,355.23 1168.5,358C 1167.45,360.77 1166.79,363.603 1166.5,366.5C 1156.17,366.5 1145.83,366.5 1135.5,366.5C 1135.5,360.833 1135.5,355.167 1135.5,349.5 Z"/></g>
<g><path style="opacity:1" fill="#444f2d" d="M 1138.5,352.5 C 1146.65,351.507 1154.98,351.174 1163.5,351.5C 1163.81,355.371 1163.48,359.038 1162.5,362.5C 1162.5,359.167 1162.5,355.833 1162.5,352.5C 1154.83,352.5 1147.17,352.5 1139.5,352.5C 1139.17,352.5 1138.83,352.5 1138.5,352.5 Z"/></g>
<g><path style="opacity:1" fill="#739342" d="M 1060.5,352.5 C 1068.5,352.5 1076.5,352.5 1084.5,352.5C 1084.5,356.167 1084.5,359.833 1084.5,363.5C 1076.5,363.5 1068.5,363.5 1060.5,363.5C 1060.5,359.833 1060.5,356.167 1060.5,352.5 Z"/></g>
<g><path style="opacity:1" fill="#96c84e" d="M 1061.5,353.5 C 1068.83,353.5 1076.17,353.5 1083.5,353.5C 1083.5,356.5 1083.5,359.5 1083.5,362.5C 1076.17,362.5 1068.83,362.5 1061.5,362.5C 1061.5,359.5 1061.5,356.5 1061.5,353.5 Z"/></g>
<g><path style="opacity:1" fill="#94c44d" d="M 1139.5,352.5 C 1147.17,352.5 1154.83,352.5 1162.5,352.5C 1162.5,355.833 1162.5,359.167 1162.5,362.5C 1154.83,362.5 1147.17,362.5 1139.5,362.5C 1139.5,359.167 1139.5,355.833 1139.5,352.5 Z"/></g>
<g><path style="opacity:1" fill="#5a6f3a" d="M 1138.5,352.5 C 1138.83,352.5 1139.17,352.5 1139.5,352.5C 1139.5,355.833 1139.5,359.167 1139.5,362.5C 1147.17,362.5 1154.83,362.5 1162.5,362.5C 1154.68,363.492 1146.68,363.826 1138.5,363.5C 1138.5,359.833 1138.5,356.167 1138.5,352.5 Z"/></g>
<g><path style="opacity:1" fill="#282724" d="M 1252.5,349.5 C 1262.83,349.5 1273.17,349.5 1283.5,349.5C 1283.44,352.488 1284.11,355.321 1285.5,358C 1284.11,360.679 1283.44,363.512 1283.5,366.5C 1273.17,366.5 1262.83,366.5 1252.5,366.5C 1252.5,360.833 1252.5,355.167 1252.5,349.5 Z"/></g>
<g><path style="opacity:1" fill="#7da246" d="M 1255.5,352.5 C 1263.5,352.5 1271.5,352.5 1279.5,352.5C 1279.5,356.167 1279.5,359.833 1279.5,363.5C 1271.5,363.5 1263.5,363.5 1255.5,363.5C 1255.5,359.833 1255.5,356.167 1255.5,352.5 Z"/></g>
<g><path style="opacity:1" fill="#97ca4e" d="M 1256.5,353.5 C 1263.83,353.5 1271.17,353.5 1278.5,353.5C 1278.5,356.167 1278.5,358.833 1278.5,361.5C 1271.17,361.5 1263.83,361.5 1256.5,361.5C 1256.5,358.833 1256.5,356.167 1256.5,353.5 Z"/></g>
<g><path style="opacity:1" fill="#3f4040" d="M 1313.5,290.5 C 1314.83,318.833 1314.83,347.167 1313.5,375.5C 940.167,375.5 566.833,375.5 193.5,375.5C 193.5,375.167 193.5,374.833 193.5,374.5C 566.833,374.5 940.167,374.5 1313.5,374.5C 1313.5,346.5 1313.5,318.5 1313.5,290.5 Z"/></g>
<g><path style="opacity:1" fill="#181818" d="M 193.5,375.5 C 566.833,375.5 940.167,375.5 1313.5,375.5C 1313.5,550.167 1313.5,724.833 1313.5,899.5C 1313.54,909.259 1308.87,915.426 1299.5,918C 935.5,918.667 571.5,918.667 207.5,918C 198.567,914.562 193.567,908.062 192.5,898.5C 193.5,724.334 193.833,550.001 193.5,375.5 Z"/></g>
<g><path style="opacity:1" fill="#0c0c0c" d="M 1313.5,283.5 C 1314.22,283.918 1314.72,284.584 1315,285.5C 1315.67,489.167 1315.67,692.833 1315,896.5C 1314.77,897.737 1314.27,898.737 1313.5,899.5C 1313.5,724.833 1313.5,550.167 1313.5,375.5C 1314.83,347.167 1314.83,318.833 1313.5,290.5C 1312.96,288.883 1312.63,287.216 1312.5,285.5C 1313.34,285.158 1313.67,284.492 1313.5,283.5 Z"/></g>
<g><path style="opacity:1" fill="#3f4345" d="M 1419.5,519.5 C 1459.5,519.333 1499.5,519.5 1539.5,520C 1545.36,521.511 1549.53,525.011 1552,530.5C 1552.67,571.5 1552.67,612.5 1552,653.5C 1550.17,659.333 1546.33,663.167 1540.5,665C 1499.83,665.667 1459.17,665.667 1418.5,665C 1412.26,663.092 1408.43,658.925 1407,652.5C 1406.33,612.167 1406.33,571.833 1407,531.5C 1409.72,525.949 1413.88,521.949 1419.5,519.5 Z"/></g>
<g><path style="opacity:1" fill="#313334" d="M 1556.5,530.5 C 1557.66,571.665 1557.83,612.998 1557,654.5C 1556.77,655.737 1556.27,656.737 1555.5,657.5C 1556.48,615.19 1556.81,572.857 1556.5,530.5 Z"/></g>
<g><path style="opacity:1" fill="#0f0606" d="M 1481.5,546.5 C 1499.59,544.582 1514.75,550.248 1527,563.5C 1538.97,581.281 1539.63,599.614 1529,618.5C 1513.53,637.985 1494.03,643.485 1470.5,635C 1460.54,630.04 1452.87,622.707 1447.5,613C 1447.64,612.228 1447.98,611.561 1448.5,611C 1454.53,610.17 1460.53,610.336 1466.5,611.5C 1475.2,622.231 1486.2,625.397 1499.5,621C 1515.49,614.516 1522.33,602.683 1520,585.5C 1516.43,573.594 1508.59,566.094 1496.5,563C 1484.36,560.936 1474.36,564.603 1466.5,574C 1460.58,574.807 1454.75,574.641 1449,573.5C 1448.33,572.5 1448.33,571.5 1449,570.5C 1456.34,557.646 1467.17,549.646 1481.5,546.5 Z"/></g>
<g><path style="opacity:1" fill="#ca272a" d="M 1455.5,616.5 C 1458.29,615.523 1461.29,615.19 1464.5,615.5C 1478.76,629.57 1494.42,631.07 1511.5,620C 1526.14,605.449 1528.31,589.282 1518,571.5C 1513.06,566.044 1507.23,562.044 1500.5,559.5C 1497.3,557.97 1493.8,557.304 1490,557.5C 1487.5,557.667 1485,557.833 1482.5,558C 1481.94,558.383 1481.61,558.883 1481.5,559.5C 1474.3,560.437 1468.63,563.937 1464.5,570C 1461.45,570.821 1458.45,570.655 1455.5,569.5C 1465.07,554.508 1478.74,548.341 1496.5,551C 1525.48,558.791 1536.64,577.291 1530,606.5C 1520.5,628.003 1504,637.169 1480.5,634C 1469.8,631.45 1461.46,625.617 1455.5,616.5 Z"/></g>
<g><path style="opacity:1" fill="#82191b" d="M 1500.5,559.5 C 1494.15,558.266 1487.81,558.266 1481.5,559.5C 1481.61,558.883 1481.94,558.383 1482.5,558C 1485,557.833 1487.5,557.667 1490,557.5C 1493.8,557.304 1497.3,557.97 1500.5,559.5 Z"/></g>
<g><path style="opacity:1" fill="#130807" d="M 1440.5,573.5 C 1441.83,573.5 1443.17,573.5 1444.5,573.5C 1444.5,575.833 1444.5,578.167 1444.5,580.5C 1453.83,580.5 1463.17,580.5 1472.5,580.5C 1472.82,588.752 1472.48,596.919 1471.5,605C 1462.51,605.5 1453.51,605.666 1444.5,605.5C 1444.66,607.527 1444.5,609.527 1444,611.5C 1442.95,612.517 1441.78,612.684 1440.5,612C 1433.92,605.923 1427.92,599.423 1422.5,592.5C 1422.67,591.833 1422.83,591.167 1423,590.5C 1428.73,584.603 1434.56,578.936 1440.5,573.5 Z"/></g>
<g><path style="opacity:1" fill="#d1292c" d="M 1438.5,580.5 C 1440.18,581.183 1440.84,582.517 1440.5,584.5C 1449.83,584.5 1459.17,584.5 1468.5,584.5C 1468.5,589.833 1468.5,595.167 1468.5,600.5C 1459.17,600.5 1449.83,600.5 1440.5,600.5C 1440.76,601.978 1440.43,603.311 1439.5,604.5C 1435.19,600.86 1431.19,596.86 1427.5,592.5C 1431.89,589.111 1435.56,585.111 1438.5,580.5 Z"/></g>
<g><path style="opacity:1" fill="#80191b" d="M 1464.5,615.5 C 1461.29,615.19 1458.29,615.523 1455.5,616.5C 1454.96,616.44 1454.62,616.107 1454.5,615.5C 1457.98,614.194 1461.31,614.194 1464.5,615.5 Z"/></g>
<g><path style="opacity:1" fill="#4a4d4e" d="M 1420.5,669.5 C 1449.5,669.5 1478.5,669.5 1507.5,669.5C 1507.83,754.002 1507.5,838.335 1506.5,922.5C 1506.5,838.5 1506.5,754.5 1506.5,670.5C 1477.66,670.831 1449,670.498 1420.5,669.5 Z"/></g>
<g><path style="opacity:1" fill="#4b4e4f" d="M 1538.5,669.5 C 1530.02,670.493 1521.35,670.826 1512.5,670.5C 1512.83,754.002 1512.5,837.335 1511.5,920.5C 1511.5,836.833 1511.5,753.167 1511.5,669.5C 1520.5,669.5 1529.5,669.5 1538.5,669.5 Z"/></g>
<g><path style="opacity:1" fill="#cd2f35" d="M 811.5,969.5 C 823.505,969.333 835.505,969.5 847.5,970C 851.463,970.957 854.63,973.124 857,976.5C 857.667,989.5 857.667,1002.5 857,1015.5C 855.998,1019.68 853.498,1022.51 849.5,1024C 836.5,1024.67 823.5,1024.67 810.5,1024C 808.376,1022.88 806.543,1021.38 805,1019.5C 803.384,1004.9 803.051,990.235 804,975.5C 806.114,972.879 808.614,970.879 811.5,969.5 Z"/></g>
<g><path style="opacity:1" fill="#cf2e34" d="M 916.5,969.5 C 928.171,969.333 939.838,969.5 951.5,970C 955.066,970.7 957.9,972.533 960,975.5C 960.667,989.5 960.667,1003.5 960,1017.5C 958.5,1020.33 956.333,1022.5 953.5,1024C 940.5,1024.67 927.5,1024.67 914.5,1024C 910.667,1022.83 908.167,1020.33 907,1016.5C 906.333,1003.5 906.333,990.5 907,977.5C 908.961,973.287 912.127,970.62 916.5,969.5 Z"/></g>
<g><path style="opacity:1" fill="#cf2e34" d="M 1121.5,969.5 C 1134.17,969.333 1146.84,969.5 1159.5,970C 1162.1,970.883 1164.27,972.383 1166,974.5C 1167.63,988.74 1167.97,1003.07 1167,1017.5C 1165.88,1019.62 1164.38,1021.46 1162.5,1023C 1148.93,1024.63 1135.26,1024.96 1121.5,1024C 1117.23,1022.73 1114.73,1019.9 1114,1015.5C 1113.33,1002.83 1113.33,990.167 1114,977.5C 1115.52,973.842 1118.02,971.176 1121.5,969.5 Z"/></g>
<g><path style="opacity:1" fill="#d52830" d="M 289.5,977.5 C 289.667,990.837 289.5,1004.17 289,1017.5C 287.874,1005.42 287.041,993.422 286.5,981.5C 286.152,978.981 284.819,977.147 282.5,976C 269.833,975.333 257.167,975.333 244.5,976C 243.333,977.167 242.167,978.333 241,979.5C 240.039,992.595 240.372,1005.6 242,1018.5C 242.833,1019.33 243.667,1020.17 244.5,1021C 257.162,1021.5 269.829,1021.67 282.5,1021.5C 283.5,1022.17 284.5,1022.83 285.5,1023.5C 285.082,1024.22 284.416,1024.72 283.5,1025C 269.833,1025.67 256.167,1025.67 242.5,1025C 240.083,1023.34 238.25,1021.17 237,1018.5C 236.333,1005.17 236.333,991.833 237,978.5C 238.5,975.667 240.667,973.5 243.5,972C 256.5,971.333 269.5,971.333 282.5,972C 286.039,972.422 288.373,974.255 289.5,977.5 Z"/></g>
<g><path style="opacity:1" fill="#d42830" d="M 450.5,971.5 C 463.837,971.333 477.171,971.5 490.5,972C 493.171,973.25 495.337,975.083 497,977.5C 497.667,991.167 497.667,1004.83 497,1018.5C 495.833,1021.67 493.667,1023.83 490.5,1025C 476.833,1025.67 463.167,1025.67 449.5,1025C 448,1023.5 446.5,1022 445,1020.5C 443.369,1006.59 443.036,992.594 444,978.5C 445.694,975.642 447.861,973.309 450.5,971.5 Z"/></g>
<g><path style="opacity:1" fill="#d32b31" d="M 553.5,971.5 C 566.837,971.333 580.171,971.5 593.5,972C 596.102,972.883 598.269,974.383 600,976.5C 600.667,990.5 600.667,1004.5 600,1018.5C 599.654,1020.85 598.487,1022.68 596.5,1024C 582.26,1025.63 567.927,1025.97 553.5,1025C 551.714,1024.22 550.214,1023.05 549,1021.5C 547.384,1006.9 547.051,992.235 548,977.5C 549.36,974.977 551.193,972.977 553.5,971.5 Z"/></g>
<g><path style="opacity:1" fill="#d52830" d="M 657.5,971.5 C 670.837,971.333 684.171,971.5 697.5,972C 699.624,973.122 701.457,974.622 703,976.5C 704.63,990.072 704.963,1003.74 704,1017.5C 703.31,1020.2 701.81,1022.36 699.5,1024C 685.26,1025.63 670.927,1025.97 656.5,1025C 653.619,1023.75 651.786,1021.58 651,1018.5C 650.333,1005.17 650.333,991.833 651,978.5C 652.425,975.394 654.592,973.06 657.5,971.5 Z"/></g>
<g><path style="opacity:1" fill="#6e696a" d="M 810.5,974.5 C 823.504,974.333 836.504,974.5 849.5,975C 850.579,975.956 851.745,976.789 853,977.5C 853.667,990.167 853.667,1002.83 853,1015.5C 852.044,1016.58 851.211,1017.75 850.5,1019C 837.595,1020.63 824.595,1020.96 811.5,1020C 810.667,1019.17 809.833,1018.33 809,1017.5C 807.371,1004.26 807.038,990.928 808,977.5C 809.045,976.627 809.878,975.627 810.5,974.5 Z"/></g>
<g><path style="opacity:1" fill="#6c696a" d="M 914.5,974.5 C 927.504,974.333 940.504,974.5 953.5,975C 954.333,975.833 955.167,976.667 956,977.5C 956.667,990.5 956.667,1003.5 956,1016.5C 955.167,1017.33 954.333,1018.17 953.5,1019C 940.929,1020.63 928.262,1020.96 915.5,1020C 914.069,1019.53 912.903,1018.7 912,1017.5C 910.372,1004.6 910.039,991.595 911,978.5C 912.032,976.973 913.199,975.64 914.5,974.5 Z"/></g>
<g><path style="opacity:1" fill="#6d696a" d="M 1121.5,974.5 C 1134.5,974.333 1147.5,974.5 1160.5,975C 1161.33,975.833 1162.17,976.667 1163,977.5C 1163.67,990.167 1163.67,1002.83 1163,1015.5C 1162.53,1016.93 1161.7,1018.1 1160.5,1019C 1147.93,1020.63 1135.26,1020.96 1122.5,1020C 1121.07,1019.53 1119.9,1018.7 1119,1017.5C 1117.37,1004.6 1117.04,991.595 1118,978.5C 1118.69,976.65 1119.86,975.316 1121.5,974.5 Z"/></g>
<g><path style="opacity:1" fill="#6b6a6b" d="M 286.5,981.5 C 286.667,993.505 286.5,1005.5 286,1017.5C 284.898,1018.95 283.731,1020.28 282.5,1021.5C 269.829,1021.67 257.162,1021.5 244.5,1021C 243.667,1020.17 242.833,1019.33 242,1018.5C 240.372,1005.6 240.039,992.595 241,979.5C 242.167,978.333 243.333,977.167 244.5,976C 257.167,975.333 269.833,975.333 282.5,976C 284.819,977.147 286.152,978.981 286.5,981.5 Z"/></g>
<g><path style="opacity:1" fill="#6b6a6b" d="M 451.5,975.5 C 463.838,975.333 476.171,975.5 488.5,976C 490.286,976.785 491.786,977.951 493,979.5C 493.667,991.833 493.667,1004.17 493,1016.5C 492.215,1018.29 491.049,1019.79 489.5,1021C 476.833,1021.67 464.167,1021.67 451.5,1021C 450.667,1020.17 449.833,1019.33 449,1018.5C 447.372,1005.6 447.039,992.595 448,979.5C 449.376,978.295 450.542,976.962 451.5,975.5 Z"/></g>
<g><path style="opacity:1" fill="#6a6a6b" d="M 555.5,975.5 C 567.838,975.333 580.171,975.5 592.5,976C 593.931,976.465 595.097,977.299 596,978.5C 596.667,991.5 596.667,1004.5 596,1017.5C 595.626,1018.42 595.126,1019.25 594.5,1020C 587.601,1021.13 580.601,1021.63 573.5,1021.5C 567.167,1021.33 560.833,1021.17 554.5,1021C 554,1020.5 553.5,1020 553,1019.5C 551.37,1005.93 551.037,992.261 552,978.5C 553.145,977.364 554.312,976.364 555.5,975.5 Z"/></g>
<g><path style="opacity:1" fill="#6b6a6b" d="M 658.5,975.5 C 671.171,975.333 683.838,975.5 696.5,976C 697.667,977.167 698.833,978.333 700,979.5C 700.667,992.167 700.667,1004.83 700,1017.5C 698.833,1018.67 697.667,1019.83 696.5,1021C 683.833,1021.67 671.167,1021.67 658.5,1021C 657.333,1019.83 656.167,1018.67 655,1017.5C 654.333,1004.83 654.333,992.167 655,979.5C 656.376,978.295 657.542,976.962 658.5,975.5 Z"/></g>
<g><path style="opacity:1" fill="#9c4b50" d="M 392.5,976.5 C 393.117,976.611 393.617,976.944 394,977.5C 394.827,990.673 394.66,1003.67 393.5,1016.5C 393.797,1003.12 393.464,989.784 392.5,976.5 Z"/></g>
<g><path style="opacity:1" fill="#d32a31" d="M 837.5,984.5 C 840.5,984.5 843.5,984.5 846.5,984.5C 846.5,985.833 846.5,987.167 846.5,988.5C 841.215,987.261 837.548,989.095 835.5,994C 835.833,994.5 836.167,995 836.5,995.5C 847.659,992.17 851.159,996.17 847,1007.5C 843.743,1010.43 839.909,1011.26 835.5,1010C 833.652,1008.48 832.152,1006.65 831,1004.5C 828.612,996.094 830.778,989.427 837.5,984.5 Z"/></g>
<g><path style="opacity:1" fill="#9f4a4e" d="M 921.5,984.5 C 923.265,983.539 925.265,983.205 927.5,983.5C 927.827,992.682 927.493,1001.68 926.5,1010.5C 926.5,1001.83 926.5,993.167 926.5,984.5C 924.833,984.5 923.167,984.5 921.5,984.5 Z"/></g>
<g><path style="opacity:1" fill="#d62830" d="M 822.5,984.5 C 822.5,992.833 822.5,1001.17 822.5,1009.5C 821.167,1009.5 819.833,1009.5 818.5,1009.5C 818.83,1003.13 818.496,996.798 817.5,990.5C 816.893,990.624 816.56,990.957 816.5,991.5C 814.27,995.568 812.27,995.401 810.5,991C 813.742,987.219 817.742,985.052 822.5,984.5 Z"/></g>
<g><path style="opacity:1" fill="#bb383e" d="M 822.5,984.5 C 823.493,992.984 823.826,1001.65 823.5,1010.5C 821.5,1010.5 819.5,1010.5 817.5,1010.5C 817.823,1003.98 817.49,997.645 816.5,991.5C 816.56,990.957 816.893,990.624 817.5,990.5C 818.496,996.798 818.83,1003.13 818.5,1009.5C 819.833,1009.5 821.167,1009.5 822.5,1009.5C 822.5,1001.17 822.5,992.833 822.5,984.5 Z"/></g>
<g><path style="opacity:1" fill="#d62730" d="M 921.5,984.5 C 923.167,984.5 924.833,984.5 926.5,984.5C 926.5,993.167 926.5,1001.83 926.5,1010.5C 924.833,1010.5 923.167,1010.5 921.5,1010.5C 921.666,1003.83 921.5,997.158 921,990.5C 919.649,992.019 918.149,993.352 916.5,994.5C 915.585,993.672 914.919,992.672 914.5,991.5C 916.548,988.785 918.882,986.452 921.5,984.5 Z"/></g>
<g><path style="opacity:1" fill="#d22b32" d="M 933.5,984.5 C 939.833,984.5 946.167,984.5 952.5,984.5C 949.88,993.247 946.546,1001.75 942.5,1010C 940.421,1010.81 938.421,1010.64 936.5,1009.5C 939.693,1003.25 942.693,996.919 945.5,990.5C 941.555,989.509 937.555,989.176 933.5,989.5C 933.5,987.833 933.5,986.167 933.5,984.5 Z"/></g>
<g><path style="opacity:1" fill="#d52830" d="M 1128.5,1010.5 C 1128.83,1004.13 1128.5,997.798 1127.5,991.5C 1126.89,991.624 1126.56,991.957 1126.5,992.5C 1125.52,993.141 1124.52,993.807 1123.5,994.5C 1122.62,993.24 1121.62,992.074 1120.5,991C 1122.79,989.71 1124.79,988.043 1126.5,986C 1128.68,984.798 1131.01,984.298 1133.5,984.5C 1133.5,993.167 1133.5,1001.83 1133.5,1010.5C 1131.83,1010.5 1130.17,1010.5 1128.5,1010.5 Z"/></g>
<g><path style="opacity:1" fill="#d22b32" d="M 1145.5,984.5 C 1154.31,982.981 1158.98,986.648 1159.5,995.5C 1159.43,1006.91 1153.76,1011.91 1142.5,1010.5C 1142.5,1009.17 1142.5,1007.83 1142.5,1006.5C 1147.83,1007.74 1151.5,1005.91 1153.5,1001C 1153.17,999.249 1152.51,999.249 1151.5,1001C 1142.89,1002.05 1139.39,998.218 1141,989.5C 1142.02,987.313 1143.52,985.646 1145.5,984.5 Z"/></g>
<g><path style="opacity:1" fill="#d62730" d="M 252.5,986.5 C 254.167,986.5 255.833,986.5 257.5,986.5C 257.5,994.833 257.5,1003.17 257.5,1011.5C 255.833,1011.5 254.167,1011.5 252.5,1011.5C 252.666,1005.16 252.5,998.825 252,992.5C 249.72,996.412 247.553,996.412 245.5,992.5C 247.828,990.507 250.161,988.507 252.5,986.5 Z"/></g>
<g><path style="opacity:1" fill="#b63c41" d="M 252.5,986.5 C 254.265,985.539 256.265,985.205 258.5,985.5C 258.826,994.349 258.493,1003.02 257.5,1011.5C 257.5,1003.17 257.5,994.833 257.5,986.5C 255.833,986.5 254.167,986.5 252.5,986.5 Z"/></g>
<g><path style="opacity:1" fill="#d6272f" d="M 273.5,986.5 C 275.167,986.5 276.833,986.5 278.5,986.5C 278.5,994.833 278.5,1003.17 278.5,1011.5C 276.833,1011.5 275.167,1011.5 273.5,1011.5C 273.666,1005.16 273.5,998.825 273,992.5C 270.605,996.274 268.439,996.274 266.5,992.5C 268.638,990.265 270.971,988.265 273.5,986.5 Z"/></g>
<g><path style="opacity:1" fill="#ac4247" d="M 273.5,986.5 C 275.265,985.539 277.265,985.205 279.5,985.5C 279.5,994.5 279.5,1003.5 279.5,1012.5C 277.265,1012.79 275.265,1012.46 273.5,1011.5C 275.167,1011.5 276.833,1011.5 278.5,1011.5C 278.5,1003.17 278.5,994.833 278.5,986.5C 276.833,986.5 275.167,986.5 273.5,986.5 Z"/></g>
<g><path style="opacity:1" fill="#d52730" d="M 458.5,1011.5 C 458.83,1005.13 458.496,998.798 457.5,992.5C 456.893,992.624 456.56,992.957 456.5,993.5C 454.084,996.308 452.084,995.975 450.5,992.5C 454.203,988.753 458.536,986.419 463.5,985.5C 463.5,994.167 463.5,1002.83 463.5,1011.5C 461.833,1011.5 460.167,1011.5 458.5,1011.5 Z"/></g>
<g><path style="opacity:1" fill="#d22a32" d="M 473.5,985.5 C 476.85,985.335 480.183,985.502 483.5,986C 487.292,988.053 488.458,991.219 487,995.5C 486.097,996.701 484.931,997.535 483.5,998C 488.989,1000.65 489.989,1004.65 486.5,1010C 482.012,1011.96 477.345,1012.63 472.5,1012C 470.44,1010.51 470.107,1008.67 471.5,1006.5C 474.773,1007.59 478.106,1007.75 481.5,1007C 482.805,1001.48 480.472,999.309 474.5,1000.5C 474.5,999.167 474.5,997.833 474.5,996.5C 476.527,996.662 478.527,996.495 480.5,996C 482.527,994.604 482.86,992.938 481.5,991C 478.46,990.68 475.46,990.68 472.5,991C 469.735,988.599 470.069,986.766 473.5,985.5 Z"/></g>
<g><path style="opacity:1" fill="#aa4348" d="M 561.5,986.5 C 563.265,985.539 565.265,985.205 567.5,985.5C 567.5,994.5 567.5,1003.5 567.5,1012.5C 565.265,1012.79 563.265,1012.46 561.5,1011.5C 563.167,1011.5 564.833,1011.5 566.5,1011.5C 566.5,1003.17 566.5,994.833 566.5,986.5C 564.833,986.5 563.167,986.5 561.5,986.5 Z"/></g>
<g><path style="opacity:1" fill="#a0494d" d="M 589.5,985.5 C 590.488,990.64 590.821,995.974 590.5,1001.5C 591.5,1001.5 592.5,1001.5 593.5,1001.5C 593.784,1003.41 593.451,1005.08 592.5,1006.5C 592.5,1005.17 592.5,1003.83 592.5,1002.5C 591.5,1002.5 590.5,1002.5 589.5,1002.5C 589.5,996.833 589.5,991.167 589.5,985.5 Z"/></g>
<g><path style="opacity:1" fill="#d52830" d="M 561.5,986.5 C 563.167,986.5 564.833,986.5 566.5,986.5C 566.5,994.833 566.5,1003.17 566.5,1011.5C 564.833,1011.5 563.167,1011.5 561.5,1011.5C 561.829,1005.46 561.496,999.463 560.5,993.5C 558.048,996.284 556.048,995.951 554.5,992.5C 556.828,990.507 559.161,988.507 561.5,986.5 Z"/></g>
<g><path style="opacity:1" fill="#d32a31" d="M 589.5,985.5 C 589.5,991.167 589.5,996.833 589.5,1002.5C 590.5,1002.5 591.5,1002.5 592.5,1002.5C 592.5,1003.83 592.5,1005.17 592.5,1006.5C 590.744,1007.55 590.077,1009.22 590.5,1011.5C 588.5,1011.5 586.5,1011.5 584.5,1011.5C 584.5,1009.83 584.5,1008.17 584.5,1006.5C 580.833,1006.5 577.167,1006.5 573.5,1006.5C 573.34,1004.8 573.506,1003.13 574,1001.5C 577,996.833 580,992.167 583,987.5C 584.789,985.771 586.956,985.104 589.5,985.5 Z"/></g>
<g><path style="opacity:1" fill="#d52830" d="M 670.5,1011.5 C 668.833,1011.5 667.167,1011.5 665.5,1011.5C 665.83,1005.13 665.496,998.798 664.5,992.5C 663.893,992.624 663.56,992.957 663.5,993.5C 661.084,996.308 659.084,995.975 657.5,992.5C 660.916,988.294 665.25,985.961 670.5,985.5C 670.5,994.167 670.5,1002.83 670.5,1011.5 Z"/></g>
<g><path style="opacity:1" fill="#d22a32" d="M 687.5,1000.5 C 685.107,999.79 682.607,999.123 680,998.5C 679.502,995.183 679.335,991.85 679.5,988.5C 679.5,987.5 679.5,986.5 679.5,985.5C 684.167,985.5 688.833,985.5 693.5,985.5C 693.5,987.167 693.5,988.833 693.5,990.5C 690.5,990.5 687.5,990.5 684.5,990.5C 684.5,992.167 684.5,993.833 684.5,995.5C 694.405,994.905 697.572,999.239 694,1008.5C 689.178,1012.96 683.845,1013.63 678,1010.5C 677.51,1009.21 677.343,1007.87 677.5,1006.5C 680.799,1007.38 684.132,1007.54 687.5,1007C 690.134,1004.71 690.134,1002.54 687.5,1000.5 Z"/></g>
<g><path style="opacity:1" fill="#716768" d="M 1147.5,988.5 C 1153.04,988.528 1154.71,991.028 1152.5,996C 1146.59,996.746 1144.93,994.246 1147.5,988.5 Z"/></g>
<g><path style="opacity:1" fill="#925155" d="M 1126.5,992.5 C 1126.56,991.957 1126.89,991.624 1127.5,991.5C 1128.5,997.798 1128.83,1004.13 1128.5,1010.5C 1127.83,1004.5 1127.17,998.5 1126.5,992.5 Z"/></g>
<g><path style="opacity:1" fill="#9c4b4f" d="M 456.5,993.5 C 456.56,992.957 456.893,992.624 457.5,992.5C 458.496,998.798 458.83,1005.13 458.5,1011.5C 457.833,1005.5 457.167,999.5 456.5,993.5 Z"/></g>
<g><path style="opacity:1" fill="#a6454a" d="M 663.5,993.5 C 663.56,992.957 663.893,992.624 664.5,992.5C 665.496,998.798 665.83,1005.13 665.5,1011.5C 667.167,1011.5 668.833,1011.5 670.5,1011.5C 668.735,1012.46 666.735,1012.79 664.5,1012.5C 664.823,1005.98 664.49,999.645 663.5,993.5 Z"/></g>
<g><path style="opacity:1" fill="#b24144" d="M 679.5,988.5 C 679.335,991.85 679.502,995.183 680,998.5C 682.607,999.123 685.107,999.79 687.5,1000.5C 684.552,1000.78 681.719,1000.44 679,999.5C 678.19,995.642 678.357,991.976 679.5,988.5 Z"/></g>
<g><path style="opacity:1" fill="#89585a" d="M 579.5,1000.5 C 580.568,1001.43 581.901,1001.77 583.5,1001.5C 583.784,999.585 583.451,997.919 582.5,996.5C 582.369,995.624 582.702,994.957 583.5,994.5C 584.48,997.086 584.813,999.753 584.5,1002.5C 582.396,1002.8 580.396,1002.47 578.5,1001.5C 578.624,1000.89 578.957,1000.56 579.5,1000.5 Z"/></g>
<g><path style="opacity:1" fill="#6c696a" d="M 582.5,996.5 C 583.451,997.919 583.784,999.585 583.5,1001.5C 581.901,1001.77 580.568,1001.43 579.5,1000.5C 580.512,999.128 581.512,997.795 582.5,996.5 Z"/></g>
<g><path style="opacity:1" fill="#756666" d="M 838.5,997.5 C 843.549,998.311 844.715,1000.98 842,1005.5C 838.474,1006.83 836.641,1005.5 836.5,1001.5C 836.803,999.886 837.47,998.552 838.5,997.5 Z"/></g>
<g><path style="opacity:1" fill="#cc2f35" d="M 289.5,977.5 C 290.661,990.994 290.827,1004.66 290,1018.5C 289.388,1021.11 287.888,1022.78 285.5,1023.5C 284.5,1022.83 283.5,1022.17 282.5,1021.5C 283.731,1020.28 284.898,1018.95 286,1017.5C 286.5,1005.5 286.667,993.505 286.5,981.5C 287.041,993.422 287.874,1005.42 289,1017.5C 289.5,1004.17 289.667,990.837 289.5,977.5 Z"/></g>
<g><path style="opacity:1" fill="#ce2f34" d="M 1018.5,969.5 C 1030.5,969.333 1042.5,969.5 1054.5,970C 1057.7,970.848 1060.53,972.348 1063,974.5C 1064.63,988.406 1064.96,1002.41 1064,1016.5C 1062.72,1020.24 1060.22,1022.74 1056.5,1024C 1043.5,1024.67 1030.5,1024.67 1017.5,1024C 1015.38,1022.88 1013.54,1021.38 1012,1019.5C 1010.39,1005.24 1010.05,990.902 1011,976.5C 1012.74,973.254 1015.24,970.921 1018.5,969.5 Z"/></g>
<g><path style="opacity:1" fill="#6d696a" d="M 1017.5,974.5 C 1030.5,974.333 1043.5,974.5 1056.5,975C 1057.93,975.465 1059.1,976.299 1060,977.5C 1060.67,990.167 1060.67,1002.83 1060,1015.5C 1058.5,1017 1057,1018.5 1055.5,1020C 1043.17,1020.67 1030.83,1020.67 1018.5,1020C 1017.67,1019.17 1016.83,1018.33 1016,1017.5C 1014.37,1004.26 1014.04,990.928 1015,977.5C 1016.04,976.627 1016.88,975.627 1017.5,974.5 Z"/></g>
<g><path style="opacity:1" fill="#d32931" d="M 1043.5,983.5 C 1051.26,982.762 1054.76,986.095 1054,993.5C 1052.83,994.667 1051.67,995.833 1050.5,997C 1056.75,1000.82 1057.08,1005.16 1051.5,1010C 1038.05,1012.19 1034.71,1007.69 1041.5,996.5C 1036.98,991.148 1037.64,986.814 1043.5,983.5 Z"/></g>
<g><path style="opacity:1" fill="#746666" d="M 1044.5,999.5 C 1048.72,999.708 1050.39,1001.71 1049.5,1005.5C 1043.04,1007.21 1041.37,1005.21 1044.5,999.5 Z"/></g>
<g><path style="opacity:1" fill="#706869" d="M 1044.5,988.5 C 1048.14,987.737 1049.64,989.07 1049,992.5C 1044.42,994.413 1042.92,993.079 1044.5,988.5 Z"/></g>
<g><path style="opacity:1" fill="#d7272f" d="M 1029.5,984.5 C 1029.5,992.833 1029.5,1001.17 1029.5,1009.5C 1028.17,1009.5 1026.83,1009.5 1025.5,1009.5C 1025.83,1003.13 1025.5,996.798 1024.5,990.5C 1023.89,990.624 1023.56,990.957 1023.5,991.5C 1021.48,994.134 1019.48,993.967 1017.5,991C 1020.74,987.219 1024.74,985.052 1029.5,984.5 Z"/></g>
<g><path style="opacity:1" fill="#ba383f" d="M 1029.5,984.5 C 1030.49,992.984 1030.83,1001.65 1030.5,1010.5C 1028.5,1010.5 1026.5,1010.5 1024.5,1010.5C 1024.82,1003.98 1024.49,997.645 1023.5,991.5C 1023.56,990.957 1023.89,990.624 1024.5,990.5C 1025.5,996.798 1025.83,1003.13 1025.5,1009.5C 1026.83,1009.5 1028.17,1009.5 1029.5,1009.5C 1029.5,1001.17 1029.5,992.833 1029.5,984.5 Z"/></g>
<g><path style="opacity:1" fill="#cf2e34" d="M 1225.5,969.5 C 1237.5,969.333 1249.5,969.5 1261.5,970C 1264.79,970.616 1267.62,972.116 1270,974.5C 1271.63,988.406 1271.96,1002.41 1271,1016.5C 1269.83,1020.33 1267.33,1022.83 1263.5,1024C 1250.5,1024.67 1237.5,1024.67 1224.5,1024C 1222.38,1022.88 1220.54,1021.38 1219,1019.5C 1217.39,1005.24 1217.05,990.902 1218,976.5C 1219.74,973.254 1222.24,970.921 1225.5,969.5 Z"/></g>
<g><path style="opacity:1" fill="#6d696a" d="M 1224.5,974.5 C 1237.5,974.333 1250.5,974.5 1263.5,975C 1264.42,975.374 1265.25,975.874 1266,976.5C 1267.63,989.405 1267.96,1002.4 1267,1015.5C 1266.53,1016.93 1265.7,1018.1 1264.5,1019C 1251.6,1020.63 1238.6,1020.96 1225.5,1020C 1224.67,1019.17 1223.83,1018.33 1223,1017.5C 1221.37,1004.26 1221.04,990.928 1222,977.5C 1223.04,976.627 1223.88,975.627 1224.5,974.5 Z"/></g>
<g><path style="opacity:1" fill="#d12c32" d="M 1252.5,983.5 C 1257.95,983.144 1261.78,985.477 1264,990.5C 1264.67,994.833 1264.67,999.167 1264,1003.5C 1261.75,1010.11 1257.25,1012.27 1250.5,1010C 1245.41,1003.57 1244.24,996.406 1247,988.5C 1248.73,986.598 1250.56,984.931 1252.5,983.5 Z"/></g>
<g><path style="opacity:1" fill="#716768" d="M 1253.5,988.5 C 1255.39,988.297 1256.89,988.963 1258,990.5C 1258.67,994.833 1258.67,999.167 1258,1003.5C 1255.38,1007.63 1253.38,1007.3 1252,1002.5C 1250.97,997.543 1251.47,992.876 1253.5,988.5 Z"/></g>
<g><path style="opacity:1" fill="#d22a32" d="M 1231.5,983.5 C 1240.23,983.056 1243.73,987.056 1242,995.5C 1239.69,998.979 1236.85,1001.98 1233.5,1004.5C 1236.77,1005.49 1240.1,1005.82 1243.5,1005.5C 1243.5,1007.17 1243.5,1008.83 1243.5,1010.5C 1237.5,1010.5 1231.5,1010.5 1225.5,1010.5C 1225.34,1008.8 1225.51,1007.13 1226,1005.5C 1230.6,1001.58 1234.43,997.076 1237.5,992C 1236.94,989.942 1235.61,988.775 1233.5,988.5C 1231.83,989.167 1230.17,989.833 1228.5,990.5C 1226.83,990.167 1225.83,989.167 1225.5,987.5C 1227.29,985.684 1229.29,984.351 1231.5,983.5 Z"/></g>
<g><path style="opacity:1" fill="#d32a31" d="M 392.5,976.5 C 393.464,989.784 393.797,1003.12 393.5,1016.5C 393.276,1020.56 391.276,1023.39 387.5,1025C 373.833,1025.67 360.167,1025.67 346.5,1025C 343.619,1023.75 341.786,1021.58 341,1018.5C 340.333,1004.5 340.333,990.5 341,976.5C 342.167,975.333 343.333,974.167 344.5,973C 358.406,971.369 372.406,971.036 386.5,972C 389.106,972.792 391.106,974.292 392.5,976.5 Z"/></g>
<g><path style="opacity:1" fill="#6b6a6b" d="M 348.5,975.5 C 360.838,975.333 373.171,975.5 385.5,976C 386.931,976.465 388.097,977.299 389,978.5C 389.667,991.5 389.667,1004.5 389,1017.5C 388.626,1018.42 388.126,1019.25 387.5,1020C 380.768,1021.13 373.935,1021.63 367,1021.5C 360.833,1021.33 354.667,1021.17 348.5,1021C 347.584,1020.63 346.75,1020.13 346,1019.5C 344.37,1005.93 344.037,992.261 345,978.5C 346.145,977.364 347.312,976.364 348.5,975.5 Z"/></g>
<g><path style="opacity:1" fill="#984e52" d="M 375.5,1005.5 C 378.833,1006.17 382.167,1006.83 385.5,1007.5C 381.774,1007.82 378.107,1007.49 374.5,1006.5C 374.624,1005.89 374.957,1005.56 375.5,1005.5 Z"/></g>
<g><path style="opacity:1" fill="#d42931" d="M 354.5,986.5 C 356.167,986.5 357.833,986.5 359.5,986.5C 359.5,994.833 359.5,1003.17 359.5,1011.5C 357.833,1011.5 356.167,1011.5 354.5,1011.5C 354.666,1005.16 354.5,998.825 354,992.5C 351.72,996.412 349.553,996.412 347.5,992.5C 349.828,990.507 352.161,988.507 354.5,986.5 Z"/></g>
<g><path style="opacity:1" fill="#aa4348" d="M 354.5,986.5 C 356.265,985.539 358.265,985.205 360.5,985.5C 360.5,994.5 360.5,1003.5 360.5,1012.5C 358.265,1012.79 356.265,1012.46 354.5,1011.5C 356.167,1011.5 357.833,1011.5 359.5,1011.5C 359.5,1003.17 359.5,994.833 359.5,986.5C 357.833,986.5 356.167,986.5 354.5,986.5 Z"/></g>
<g><path style="opacity:1" fill="#d22a32" d="M 375.5,1005.5 C 374.957,1005.56 374.624,1005.89 374.5,1006.5C 378.107,1007.49 381.774,1007.82 385.5,1007.5C 385.5,1008.83 385.5,1010.17 385.5,1011.5C 379.5,1011.5 373.5,1011.5 367.5,1011.5C 367.34,1009.8 367.506,1008.13 368,1006.5C 371,1003.5 374,1000.5 377,997.5C 378.202,995.323 378.702,992.989 378.5,990.5C 375.518,990.104 372.851,990.771 370.5,992.5C 366.511,989.918 366.844,987.751 371.5,986C 383.75,983.906 387.25,988.406 382,999.5C 379.963,1001.71 377.797,1003.71 375.5,1005.5 Z"/></g>
<g><path style="opacity:1" fill="#010202" d="M 215.5,1043.5 C 573.833,1043.33 932.167,1043.5 1290.5,1044C 1297.19,1046.36 1302.36,1050.53 1306,1056.5C 1306.67,1089.83 1306.67,1123.17 1306,1156.5C 1305.1,1157.7 1303.93,1158.53 1302.5,1159C 936.167,1159.67 569.833,1159.67 203.5,1159C 203,1158.5 202.5,1158 202,1157.5C 201.333,1123.83 201.333,1090.17 202,1056.5C 205.132,1050.53 209.632,1046.2 215.5,1043.5 Z"/></g>
<g><path style="opacity:1" fill="#3f4345" d="M 779.5,1083.5 C 778.502,1106.99 778.169,1130.66 778.5,1154.5C 761.833,1154.5 745.167,1154.5 728.5,1154.5C 728.667,1130.83 728.5,1107.16 728,1083.5C 727.5,1083 727,1082.5 726.5,1082C 722.848,1081.5 719.182,1081.33 715.5,1081.5C 715.666,1076.49 715.499,1071.49 715,1066.5C 714.5,1066 714,1065.5 713.5,1065C 708.845,1064.5 704.179,1064.33 699.5,1064.5C 699.666,1060.49 699.499,1056.49 699,1052.5C 698.5,1052 698,1051.5 697.5,1051C 685.167,1050.33 672.833,1050.33 660.5,1051C 659.667,1051.83 658.833,1052.67 658,1053.5C 657.501,1057.15 657.335,1060.82 657.5,1064.5C 653.154,1064.33 648.821,1064.5 644.5,1065C 644,1065.5 643.5,1066 643,1066.5C 642.501,1071.49 642.334,1076.49 642.5,1081.5C 631.833,1081.5 621.167,1081.5 610.5,1081.5C 610.666,1076.16 610.499,1070.82 610,1065.5C 605.263,1064.53 600.43,1064.2 595.5,1064.5C 595.666,1060.49 595.499,1056.49 595,1052.5C 594.5,1052 594,1051.5 593.5,1051C 580.82,1050.17 568.154,1050.33 555.5,1051.5C 553.654,1055.58 552.987,1059.92 553.5,1064.5C 548.57,1064.2 543.737,1064.53 539,1065.5C 538.501,1070.82 538.334,1076.16 538.5,1081.5C 527.833,1081.5 517.167,1081.5 506.5,1081.5C 506.666,1076.49 506.499,1071.49 506,1066.5C 505.5,1066 505,1065.5 504.5,1065C 500.179,1064.5 495.846,1064.33 491.5,1064.5C 491.665,1060.82 491.499,1057.15 491,1053.5C 490.167,1052.67 489.333,1051.83 488.5,1051C 476.167,1050.33 463.833,1050.33 451.5,1051C 451,1051.5 450.5,1052 450,1052.5C 449.501,1056.49 449.334,1060.49 449.5,1064.5C 444.57,1064.2 439.737,1064.53 435,1065.5C 434.501,1070.82 434.334,1076.16 434.5,1081.5C 423.833,1081.5 413.167,1081.5 402.5,1081.5C 402.666,1076.49 402.499,1071.49 402,1066.5C 401.5,1066 401,1065.5 400.5,1065C 396.167,1064.67 391.833,1064.33 387.5,1064C 386.703,1060.25 386.203,1056.42 386,1052.5C 385.5,1052 385,1051.5 384.5,1051C 372.167,1050.33 359.833,1050.33 347.5,1051C 347,1051.5 346.5,1052 346,1052.5C 345.501,1056.49 345.334,1060.49 345.5,1064.5C 340.821,1064.33 336.155,1064.5 331.5,1065C 331,1065.5 330.5,1066 330,1066.5C 329.501,1071.49 329.334,1076.49 329.5,1081.5C 319.167,1081.5 308.833,1081.5 298.5,1081.5C 298.666,1076.49 298.499,1071.49 298,1066.5C 297.5,1066 297,1065.5 296.5,1065C 291.845,1064.5 287.179,1064.33 282.5,1064.5C 282.666,1060.49 282.499,1056.49 282,1052.5C 281.5,1052 281,1051.5 280.5,1051C 268.167,1050.33 255.833,1050.33 243.5,1051C 243,1051.5 242.5,1052 242,1052.5C 241.797,1056.42 241.297,1060.25 240.5,1064C 236.167,1064.33 231.833,1064.67 227.5,1065C 227,1065.5 226.5,1066 226,1066.5C 225.501,1071.49 225.334,1076.49 225.5,1081.5C 221.563,1081.21 217.73,1081.54 214,1082.5C 213.5,1106.5 213.333,1130.5 213.5,1154.5C 210.833,1154.5 208.167,1154.5 205.5,1154.5C 205.333,1122.5 205.5,1090.5 206,1058.5C 207.833,1054 211,1050.83 215.5,1049C 573.833,1048.33 932.167,1048.33 1290.5,1049C 1295.18,1050.35 1298.68,1053.18 1301,1057.5C 1301.5,1089.83 1301.67,1122.16 1301.5,1154.5C 1299.5,1154.5 1297.5,1154.5 1295.5,1154.5C 1295.67,1130.83 1295.5,1107.16 1295,1083.5C 1294.5,1083 1294,1082.5 1293.5,1082C 1289.51,1081.5 1285.51,1081.33 1281.5,1081.5C 1281.83,1076.13 1281.49,1070.79 1280.5,1065.5C 1275.9,1064.56 1271.23,1064.22 1266.5,1064.5C 1266.67,1060.49 1266.5,1056.49 1266,1052.5C 1265.5,1052 1265,1051.5 1264.5,1051C 1251.83,1050.33 1239.17,1050.33 1226.5,1051C 1225.87,1051.75 1225.37,1052.58 1225,1053.5C 1224.5,1057.15 1224.33,1060.82 1224.5,1064.5C 1219.79,1064.17 1215.12,1064.51 1210.5,1065.5C 1209.55,1070.77 1209.22,1076.1 1209.5,1081.5C 1198.83,1081.5 1188.17,1081.5 1177.5,1081.5C 1177.67,1076.49 1177.5,1071.49 1177,1066.5C 1176.5,1066 1176,1065.5 1175.5,1065C 1171.18,1064.5 1166.85,1064.33 1162.5,1064.5C 1163.03,1059.89 1162.36,1055.56 1160.5,1051.5C 1147.85,1050.33 1135.18,1050.17 1122.5,1051C 1122,1051.5 1121.5,1052 1121,1052.5C 1120.5,1056.49 1120.33,1060.49 1120.5,1064.5C 1115.82,1064.33 1111.15,1064.5 1106.5,1065C 1106,1065.5 1105.5,1066 1105,1066.5C 1104.5,1071.49 1104.33,1076.49 1104.5,1081.5C 1094.17,1081.5 1083.83,1081.5 1073.5,1081.5C 1073.67,1076.49 1073.5,1071.49 1073,1066.5C 1072.5,1066 1072,1065.5 1071.5,1065C 1067.18,1064.5 1062.85,1064.33 1058.5,1064.5C 1058.67,1060.82 1058.5,1057.15 1058,1053.5C 1057.17,1052.67 1056.33,1051.83 1055.5,1051C 1043.17,1050.33 1030.83,1050.33 1018.5,1051C 1018,1051.5 1017.5,1052 1017,1052.5C 1016.5,1056.49 1016.33,1060.49 1016.5,1064.5C 1011.57,1064.2 1006.74,1064.53 1002,1065.5C 1001.5,1070.82 1001.33,1076.16 1001.5,1081.5C 990.833,1081.5 980.167,1081.5 969.5,1081.5C 969.666,1076.49 969.499,1071.49 969,1066.5C 968.5,1066 968,1065.5 967.5,1065C 963.167,1064.67 958.833,1064.33 954.5,1064C 953.703,1060.25 953.203,1056.42 953,1052.5C 952.5,1052 952,1051.5 951.5,1051C 939.167,1050.33 926.833,1050.33 914.5,1051C 914,1051.5 913.5,1052 913,1052.5C 912.797,1056.42 912.297,1060.25 911.5,1064C 907.167,1064.33 902.833,1064.67 898.5,1065C 898,1065.5 897.5,1066 897,1066.5C 896.501,1071.49 896.334,1076.49 896.5,1081.5C 885.833,1081.5 875.167,1081.5 864.5,1081.5C 864.666,1076.16 864.499,1070.82 864,1065.5C 859.263,1064.53 854.43,1064.2 849.5,1064.5C 849.666,1060.49 849.499,1056.49 849,1052.5C 848.5,1052 848,1051.5 847.5,1051C 834.82,1050.17 822.154,1050.33 809.5,1051.5C 807.654,1055.58 806.987,1059.92 807.5,1064.5C 802.57,1064.2 797.737,1064.53 793,1065.5C 792.501,1070.82 792.334,1076.16 792.5,1081.5C 788.486,1081.33 784.486,1081.5 780.5,1082C 779.944,1082.38 779.611,1082.88 779.5,1083.5 Z"/></g>
<g><path style="opacity:1" fill="#1e2021" d="M 779.5,1083.5 C 779.5,1107.5 779.5,1131.5 779.5,1155.5C 762.325,1155.83 745.325,1155.5 728.5,1154.5C 745.167,1154.5 761.833,1154.5 778.5,1154.5C 778.169,1130.66 778.502,1106.99 779.5,1083.5 Z"/></g>
<g><path style="opacity:1" fill="#282b2c" d="M 783.5,1145.5 C 783.5,1145.17 783.5,1144.83 783.5,1144.5C 952.833,1144.5 1122.17,1144.5 1291.5,1144.5C 1291.5,1147.83 1291.5,1151.17 1291.5,1154.5C 1291.17,1154.5 1290.83,1154.5 1290.5,1154.5C 1290.5,1151.5 1290.5,1148.5 1290.5,1145.5C 1121.5,1145.5 952.5,1145.5 783.5,1145.5 Z"/></g>
<g><path style="opacity:1" fill="#3d4143" d="M 217.5,1144.5 C 386.5,1144.5 555.5,1144.5 724.5,1144.5C 724.5,1147.83 724.5,1151.17 724.5,1154.5C 555.5,1154.5 386.5,1154.5 217.5,1154.5C 217.5,1151.17 217.5,1147.83 217.5,1144.5 Z"/></g>
<g><path style="opacity:1" fill="#404446" d="M 783.5,1145.5 C 952.5,1145.5 1121.5,1145.5 1290.5,1145.5C 1290.5,1148.5 1290.5,1151.5 1290.5,1154.5C 1121.5,1154.5 952.5,1154.5 783.5,1154.5C 783.5,1151.5 783.5,1148.5 783.5,1145.5 Z"/></g>
<g><path style="opacity:1" fill="#151617" d="M 783.5,1144.5 C 783.5,1144.83 783.5,1145.17 783.5,1145.5C 783.5,1148.5 783.5,1151.5 783.5,1154.5C 952.5,1154.5 1121.5,1154.5 1290.5,1154.5C 1290.83,1154.5 1291.17,1154.5 1291.5,1154.5C 1122,1155.5 952.334,1155.83 782.5,1155.5C 782.185,1151.63 782.518,1147.96 783.5,1144.5 Z"/></g>
</svg>
