<?xml version="1.0" standalone="no"?><!DOCTYPE svg PUBLIC "-//W3C//DTD SVG 1.1//EN" "http://www.w3.org/Graphics/SVG/1.1/DTD/svg11.dtd"><svg t="1748936083380" class="icon" viewBox="0 0 1024 1024" version="1.1" xmlns="http://www.w3.org/2000/svg" p-id="7242" xmlns:xlink="http://www.w3.org/1999/xlink" width="200" height="200"><path d="M106.496 827.904c-20.992 0-38.4-17.408-38.4-38.4V234.496c0-20.992 17.408-38.4 38.4-38.4h811.008c20.992 0 38.4 17.408 38.4 38.4v555.008c0 20.992-17.408 38.4-38.4 38.4H106.496z m0-583.168c-14.336 0-25.6 11.264-25.6 25.6v519.168c0 14.336 11.264 25.6 25.6 25.6h811.008c14.336 0 25.6-11.264 25.6-25.6V270.336c0-14.336-11.264-25.6-25.6-25.6H106.496zM220.16 202.24c-10.24 0-18.432 8.192-18.432 18.432s8.192 18.432 18.432 18.432 18.432-8.192 18.432-18.432c0-9.728-7.68-17.92-17.408-18.432H220.16z m-42.496 0c-10.24 0-18.432 8.192-18.432 18.432s8.192 18.432 18.432 18.432 18.432-8.192 18.432-18.432-8.192-18.432-18.432-18.432z m-42.496 0c-10.24 0-18.432 8.192-18.432 18.432s8.192 18.432 18.432 18.432 18.432-8.192 18.432-18.432-8.192-18.432-18.432-18.432z" fill="#3B8FCE" p-id="7243"></path><path d="M917.504 200.192c18.944 0 34.304 15.36 34.304 34.304v555.008c0 18.944-15.36 34.304-34.304 34.304H106.496c-18.944 0-34.304-15.36-34.304-34.304V234.496c0-18.944 15.36-34.304 34.304-34.304h19.968c-11.264 5.12-16.384 18.432-11.264 29.696 2.048 5.12 6.144 8.704 11.264 11.264h-19.968c-16.384 0-29.696 13.312-29.696 29.696v519.168c0 16.384 13.312 29.696 29.696 29.696h811.008c16.384 0 29.696-13.312 29.696-29.696V270.336c0-16.384-13.312-29.696-29.696-29.696H229.376c11.264-5.12 16.384-18.432 11.264-29.696-2.048-5.12-6.144-8.704-11.264-11.264l688.128 0.512m-705.536 0c-6.144 2.56-10.752 7.68-12.8 14.336-2.048-6.656-6.656-11.776-12.8-14.336h25.6m-42.496 0c-6.144 2.56-10.752 7.68-12.8 14.336-2.048-6.656-6.656-11.776-12.8-14.336h25.6m30.72 26.112c2.048 6.656 6.656 11.776 12.8 14.336h-26.624c6.144-2.56 10.752-7.68 12.8-14.336m-42.496 0c2.048 6.656 6.656 11.776 12.8 14.336h-25.6c6.144-2.56 11.264-7.68 12.8-14.336m760.832-34.304H106.496c-23.552 0-42.496 18.944-42.496 42.496v555.008c0 23.552 18.944 42.496 42.496 42.496h811.008c23.552 0 42.496-18.944 42.496-42.496V234.496c0-23.552-18.944-42.496-42.496-42.496zM220.672 234.496c-8.192 0-14.336-6.656-14.336-14.336s6.656-14.336 14.336-14.336c8.192 0 14.336 6.656 14.336 14.336 0 7.68-6.144 14.336-14.336 14.336z m-42.496 0c-8.192 0.512-14.848-5.632-15.36-13.824-0.512-8.192 5.632-14.848 13.824-15.36 8.192-0.512 14.848 5.632 15.36 13.824v1.536c0 8.192-6.656 14.336-14.336 14.336l0.512-0.512z m-41.984 0c-8.192 0-14.336-6.656-14.336-14.336 0-8.192 6.656-14.336 14.336-14.336 8.192 0 14.336 6.656 14.336 14.336 0 7.68-6.656 14.336-14.336 14.336z m-29.184 576c-11.776 0-21.504-9.728-21.504-21.504V270.336c0-11.776 9.728-21.504 21.504-21.504h810.496c11.776 0 21.504 9.728 21.504 21.504v519.168c0 11.776-9.728 21.504-21.504 21.504l-810.496-0.512z" fill="#3176BC" p-id="7244"></path><path d="M366.592 547.328c0 80.384 65.024 145.408 145.408 145.408s145.408-65.024 145.408-145.408-65.024-145.408-145.408-145.408-145.408 65.024-145.408 145.408z" fill="#3176BC" p-id="7245"></path><path d="M586.24 547.328L465.408 477.696v139.776l120.832-70.144z" fill="#FFFFFF" p-id="7246"></path></svg>